<svg xmlns="http://www.w3.org/2000/svg" width="800" height="800" viewBox="0 0 800 800" fill="none"><path d="M800 400C800 620.914 620.914 800 400 800C179.086 800 0 620.914 0 400C0 179.086 179.086 0 400 0C620.914 0 800 179.086 800 400Z" fill="#209BE0"></path><path d="M762.5 400C762.5 600.203 600.203 762.5 400 762.5C199.797 762.5 37.5 600.203 37.5 400C37.5 199.797 199.797 37.5 400 37.5C600.203 37.5 762.5 199.797 762.5 400Z" fill="white"></path><path d="M352.733 662.435L398.908 731.25V668.75H405.557V731.25L452.037 662.175C454.054 659.178 454.445 655.375 453.082 652.03L439.498 618.706C434.673 606.868 431.198 594.524 429.141 581.908L427.977 574.767C424.697 554.649 424.58 534.142 427.632 513.988C430.651 496.892 437.996 480.853 448.966 467.397L478.289 431.429L423.026 474.881V445.235C423.026 425.936 424.877 406.682 428.553 387.736C431.005 375.099 434.473 362.681 438.923 350.602L441.447 343.75L455.263 312.5L478.289 268.75L473.323 272.794C461.331 282.559 450.621 293.8 441.447 306.25L423.026 331.25L422.575 332.016C410.65 352.246 401.507 373.992 395.395 396.667L381.579 440.119C360.314 424.355 336.968 411.112 312.5 401.012L337.361 427.402C345.312 435.842 352.094 445.312 357.523 455.557L361.87 463.76C365.783 471.143 368.733 478.998 370.649 487.132L371.396 490.305C375.102 506.041 376.974 522.153 376.974 538.32C376.974 556.783 374.579 575.168 369.851 593.015L367.763 600.893L351.229 651.595C350.038 655.247 350.593 659.245 352.733 662.435Z" fill="#313536"></path><path d="M414.438 659.119C414.438 665.839 408.953 671.286 402.188 671.286C395.422 671.286 389.938 665.839 389.938 659.119C389.938 652.4 395.422 646.952 402.188 646.952C408.953 646.952 414.438 652.4 414.438 659.119Z" fill="white"></path><path d="M381.25 384.375C381.25 396.456 371.456 406.25 359.375 406.25C347.294 406.25 337.5 396.456 337.5 384.375C337.5 372.294 347.294 362.5 359.375 362.5C371.456 362.5 381.25 372.294 381.25 384.375Z" fill="#313536"></path><path d="M481.25 409.375C481.25 421.456 471.456 431.25 459.375 431.25C447.294 431.25 437.5 421.456 437.5 409.375C437.5 397.294 447.294 387.5 459.375 387.5C471.456 387.5 481.25 397.294 481.25 409.375Z" fill="#313536"></path><path d="M501.542 235.086L476.215 261.99L479.029 239.344C480.827 224.874 483.656 210.55 487.495 196.483C491.376 181.682 499.797 168.47 511.575 158.702L513.03 157.495C520.95 150.926 529.801 145.568 539.293 141.596L558.318 133.634L557.676 157.751C556.485 202.466 531.252 243.057 491.679 263.912L501.542 235.086Z" fill="#E42B33"></path><path d="M535.98 343.794L500 359.917L521.771 366.455C535.786 370.664 550.13 373.685 564.652 375.486C579.788 377.543 595.171 374.332 608.22 366.393L613.022 363.471C621.729 358.173 629.646 351.674 636.539 344.167L654.012 325.134L640.06 319.132C594.513 299.538 541.699 308.607 505.298 342.273L535.98 343.794Z" fill="#EF7530"></path><path d="M514.981 477.407L490.199 450L512.545 454.625C526.825 457.58 540.875 461.551 554.588 466.508C569.029 471.566 581.522 481.021 590.312 493.546L591.398 495.094C597.309 503.516 601.938 512.768 605.135 522.549L611.542 542.153L587.555 539.575C543.08 534.794 504.648 506.38 487.041 465.26L514.981 477.407Z" fill="#FDC645"></path><path d="M293.411 238.235L315.775 262.346L314.869 243.191C314.286 230.875 312.693 218.629 310.105 206.575C307.545 193.952 300.776 182.571 290.907 174.296L287.676 171.586C281.083 166.058 273.738 161.497 265.86 158.038L246.575 149.571L245.671 163.592C243.024 204.635 264.488 243.469 300.65 263.062L293.411 238.235Z" fill="#AD529F"></path><path d="M388.217 258.848L398.555 267.624L398.224 260.628C398.008 256.062 397.319 251.531 396.167 247.108C395.038 242.504 392.207 238.499 388.245 235.898L385.199 233.899C382.572 232.175 379.736 230.794 376.76 229.79L366.744 226.41C365.07 244.118 375.079 261.081 391.483 267.959L388.217 258.848Z" fill="#FDC645"></path><path d="M380.957 311.783L388.377 318.079L388.139 313.06C387.984 309.784 387.49 306.534 386.663 303.36C385.853 300.058 383.822 297.185 380.978 295.319L378.79 293.884C376.906 292.648 374.871 291.657 372.736 290.937L365.546 288.512C364.344 301.219 371.528 313.385 383.301 318.319L380.957 311.783Z" fill="#3ABF49"></path><path d="M246.355 328.845L276.663 349.981L253.849 350.497C239.271 350.828 224.688 350.116 210.211 348.368C195.003 346.686 180.704 340.28 169.324 330.052L167.918 328.788C160.265 321.91 153.674 313.935 148.361 305.123L137.712 287.461L161.664 284.581C206.076 279.242 249.911 298.291 276.31 334.402L246.355 328.845Z" fill="#1180C6"></path><path d="M251.567 461.839L281.598 454.453L253.914 482.596L238.841 494.612L238.069 495.238C228.058 503.358 215.969 508.504 203.177 510.091C194.056 511.222 184.815 510.958 175.772 509.309L161.664 506.735L179.446 485.424C202.471 457.83 237.529 443.23 273.334 446.324L251.567 461.839Z" fill="#1DABC1"></path><path d="M185.807 419.183L191.191 407.93C181.585 403.045 170.797 400.968 160.065 401.938L152.178 402.651C138.379 405.024 125.231 410.263 113.581 418.029L112.5 418.75C93.4444 431.554 77.3311 448.266 65.2301 467.776L64.4766 468.99C110.254 483.986 160.25 464.558 183.89 422.586L185.807 419.183Z" fill="#44B04D"></path><path d="M377.706 183.938L389.021 187.336L390.39 182.552C392.465 175.296 393.25 167.731 392.709 160.203C392.033 150.813 389.631 141.629 385.622 133.111L382.046 125.511C379.322 119.722 375.745 114.375 371.436 109.646L366.049 103.735C356.598 93.3636 344.828 85.3746 331.7 80.4197L311.563 72.8191C305.183 120.654 332.568 166.868 377.706 183.938Z" fill="#44B04D"></path><path d="M429.766 153.839L431.128 161.907L434.78 160.877C440.526 159.255 445.992 156.77 450.993 153.507C457.266 149.413 462.842 144.339 467.508 138.479L471.209 133.83C474.443 129.769 477.098 125.28 479.101 120.49L480.861 116.279C485.112 106.109 486.815 95.0552 485.821 84.0777L484.636 70.9861L477.556 74.0002C445.998 87.4347 426.698 119.679 429.766 153.839Z" fill="#1DABC1"></path><path d="M571.202 223.45L568.945 231.315L572.683 231.963C578.566 232.982 584.57 233.103 590.489 232.32C597.915 231.338 605.136 229.171 611.876 225.902L617.223 223.309C621.893 221.043 626.228 218.142 630.103 214.687L633.51 211.65C641.737 204.315 648.048 195.081 651.895 184.752L656.482 172.433L648.794 172.092C614.53 170.575 583.193 191.316 571.202 223.45Z" fill="#44B04D"></path><path d="M191.167 230.917L199.387 229.713L199.296 228.343C198.905 222.494 197.4 216.773 194.861 211.488C193.309 208.255 191.165 205.341 188.541 202.896L182.39 197.165C176.789 192.303 169.966 189.066 162.657 187.804L155.361 186.543C149.124 185.466 142.79 185.061 136.467 185.336L121.999 185.965C128.772 214.555 155.433 233.894 184.713 231.454L191.167 230.917Z" fill="#44B04D"></path><path d="M224.798 311.513C223.053 311.509 222.163 311.466 221.005 310.552L219.186 309.114L218.99 310.987C218.988 310.997 218.85 311.922 217.9 312.294C216.898 312.686 215.231 312.393 213.078 311.447C210.942 310.509 209.602 309.487 209.202 308.491C208.813 307.524 209.4 306.802 209.419 306.781L210.906 305.096L208.198 304.986C205.136 304.86 204.006 304.071 202.295 302.877C201.207 302.116 199.974 301.255 198.082 300.424C192.579 298.006 188.526 299.2 185.388 304.169L174.326 299.662L175.439 297.13L173.063 296.087L171.922 298.683L170.721 298.193L171.058 297.424L163.931 294.293L160.665 301.729L167.792 304.86L168.13 304.091L171.651 305.753L170.539 308.285L172.914 309.328L173.998 306.86L182.453 310.85C180.916 316.523 182.779 320.315 188.282 322.732C190.174 323.564 191.642 323.889 192.939 324.177C194.975 324.629 196.32 324.927 198.484 327.098L200.397 329.017L200.633 326.782C200.634 326.772 200.772 325.846 201.723 325.474C202.725 325.081 204.393 325.374 206.545 326.32C208.681 327.258 210.021 328.28 210.422 329.276C210.811 330.243 210.222 330.965 210.205 330.986L208.958 332.397L211.247 332.764C212.704 332.998 213.337 333.625 214.521 334.908C215.607 336.084 216.96 337.548 219.537 338.68C226.73 341.84 232.097 339.12 235.944 330.363C239.791 321.606 238.164 315.814 230.97 312.654C228.394 311.522 226.399 311.516 224.798 311.513ZM163.857 300.914L165.49 297.196L167.866 298.239L166.233 301.958L163.857 300.914ZM169.904 300.053L197.548 311.317L195.943 314.97L168.947 302.231L169.904 300.053ZM220.354 336.821C218.395 335.961 217.377 334.858 216.393 333.792C215.466 332.787 214.513 331.755 212.965 331.131C213.112 330.526 213.12 329.785 212.806 328.976C212.147 327.278 210.315 325.758 207.362 324.461C204.409 323.163 202.05 322.842 200.353 323.505C199.672 323.772 199.182 324.173 198.837 324.604C196.711 322.909 194.971 322.522 193.147 322.118C191.941 321.851 190.694 321.574 189.099 320.873C186.03 319.526 183.429 317.496 184.823 311.968L197.473 317.938L197.896 316.976L212.15 323.237L212.967 321.378L198.713 315.117L199.529 313.258L219.611 322.079C219.541 322.412 219.451 322.746 219.314 323.058C219.177 323.37 218.992 323.662 218.794 323.938L215.342 322.422L214.526 324.281L217.309 325.504C217.017 325.743 216.806 325.89 216.8 325.894L216.156 326.328L217.795 329.38L218.81 329.29C220.454 329.141 225.237 328.986 227.592 330.021L232.195 332.043C228.198 339.028 223.823 338.345 220.354 336.821ZM233.133 330.237L228.409 328.162C225.681 326.964 221.408 326.988 219.305 327.089C220.033 326.476 221.113 325.414 221.69 324.102C222.267 322.789 222.318 321.275 222.277 320.324C223.625 321.941 226.498 325.105 229.225 326.303L233.949 328.378C233.823 328.691 233.712 328.992 233.568 329.32C233.425 329.647 233.278 329.933 233.133 330.237ZM234.645 326.466L230.042 324.444C227.692 323.412 224.566 319.783 223.561 318.472L222.94 317.665L219.586 318.524L219.702 319.289C219.703 319.296 219.737 319.551 219.758 319.928L200.345 311.401L200.768 310.438L187.813 305.16C190.942 300.393 194.197 300.935 197.265 302.283C198.86 302.984 199.908 303.715 200.921 304.422C202.452 305.491 203.913 306.511 206.601 306.932C206.518 307.475 206.554 308.11 206.817 308.791C207.477 310.489 209.309 312.009 212.262 313.306C215.215 314.604 217.573 314.924 219.27 314.262C220.078 313.946 220.618 313.438 220.965 312.92C222.471 313.639 223.874 313.642 225.243 313.645C226.694 313.648 228.195 313.652 230.153 314.513C233.623 316.037 237.085 318.798 234.645 326.466Z" fill="#040404"></path><path d="M600.781 352.097V319.609C600.781 319.299 600.658 319.001 600.438 318.781C600.218 318.561 599.92 318.438 599.609 318.438H550.391C550.08 318.438 549.782 318.561 549.562 318.781C549.342 319.001 549.219 319.299 549.219 319.609V352.097L542.355 363.538C542.248 363.715 542.19 363.918 542.188 364.126C542.185 364.333 542.237 364.537 542.34 364.718C542.442 364.898 542.59 365.048 542.769 365.153C542.948 365.257 543.152 365.312 543.359 365.312H606.641C606.848 365.312 607.052 365.257 607.231 365.153C607.41 365.048 607.558 364.898 607.66 364.718C607.763 364.537 607.815 364.333 607.812 364.126C607.81 363.918 607.752 363.715 607.645 363.538L600.781 352.097ZM551.562 320.781H598.438V351.25H551.562V320.781ZM545.429 362.969L551.054 353.594H598.946L604.571 362.969H545.429Z" fill="black"></path><path d="M574.168 322.293C573.954 322.518 573.832 322.815 573.828 323.125C573.83 323.436 573.952 323.734 574.168 323.957C574.333 324.122 574.542 324.234 574.77 324.279C574.999 324.324 575.235 324.301 575.45 324.212C575.665 324.123 575.849 323.972 575.978 323.779C576.107 323.585 576.176 323.358 576.176 323.125C576.176 322.892 576.107 322.665 575.978 322.471C575.849 322.278 575.665 322.127 575.45 322.038C575.235 321.949 574.999 321.926 574.77 321.971C574.542 322.016 574.333 322.128 574.168 322.293ZM561.523 355.938C561.523 355.627 561.4 355.329 561.18 355.109C560.96 354.889 560.662 354.766 560.352 354.766H556.836C556.525 354.766 556.227 354.889 556.007 355.109C555.787 355.329 555.664 355.627 555.664 355.938C555.664 356.248 555.787 356.546 556.007 356.766C556.227 356.986 556.525 357.109 556.836 357.109H560.352C560.662 357.109 560.96 356.986 561.18 356.766C561.4 356.546 561.523 356.248 561.523 355.938ZM569.727 355.938C569.727 355.627 569.603 355.329 569.383 355.109C569.164 354.889 568.865 354.766 568.555 354.766H565.039C564.728 354.766 564.43 354.889 564.21 355.109C563.991 355.329 563.867 355.627 563.867 355.938C563.867 356.248 563.991 356.546 564.21 356.766C564.43 356.986 564.728 357.109 565.039 357.109H568.555C568.865 357.109 569.164 356.986 569.383 356.766C569.603 356.546 569.727 356.248 569.727 355.938ZM573.242 357.109H576.758C577.069 357.109 577.367 356.986 577.586 356.766C577.806 356.546 577.93 356.248 577.93 355.938C577.93 355.627 577.806 355.329 577.586 355.109C577.367 354.889 577.069 354.766 576.758 354.766H573.242C572.931 354.766 572.633 354.889 572.414 355.109C572.194 355.329 572.07 355.627 572.07 355.938C572.07 356.248 572.194 356.546 572.414 356.766C572.633 356.986 572.931 357.109 573.242 357.109ZM586.133 355.938C586.133 355.627 586.009 355.329 585.79 355.109C585.57 354.889 585.272 354.766 584.961 354.766H581.445C581.135 354.766 580.836 354.889 580.617 355.109C580.397 355.329 580.273 355.627 580.273 355.938C580.273 356.248 580.397 356.546 580.617 356.766C580.836 356.986 581.135 357.109 581.445 357.109H584.961C585.272 357.109 585.57 356.986 585.79 356.766C586.009 356.546 586.133 356.248 586.133 355.938ZM594.336 355.938C594.336 355.627 594.213 355.329 593.993 355.109C593.773 354.889 593.475 354.766 593.164 354.766H589.648C589.338 354.766 589.04 354.889 588.82 355.109C588.6 355.329 588.477 355.627 588.477 355.938C588.477 356.248 588.6 356.546 588.82 356.766C589.04 356.986 589.338 357.109 589.648 357.109H593.164C593.475 357.109 593.773 356.986 593.993 356.766C594.213 356.546 594.336 356.248 594.336 355.938ZM555.078 359.453H551.562C551.252 359.453 550.954 359.577 550.734 359.796C550.514 360.016 550.391 360.314 550.391 360.625C550.391 360.936 550.514 361.234 550.734 361.454C550.954 361.673 551.252 361.797 551.562 361.797H555.078C555.389 361.797 555.687 361.673 555.907 361.454C556.127 361.234 556.25 360.936 556.25 360.625C556.25 360.314 556.127 360.016 555.907 359.796C555.687 359.577 555.389 359.453 555.078 359.453ZM563.281 359.453H559.766C559.455 359.453 559.157 359.577 558.937 359.796C558.717 360.016 558.594 360.314 558.594 360.625C558.594 360.936 558.717 361.234 558.937 361.454C559.157 361.673 559.455 361.797 559.766 361.797H563.281C563.592 361.797 563.89 361.673 564.11 361.454C564.33 361.234 564.453 360.936 564.453 360.625C564.453 360.314 564.33 360.016 564.11 359.796C563.89 359.577 563.592 359.453 563.281 359.453ZM582.031 359.453H567.969C567.658 359.453 567.36 359.577 567.14 359.796C566.92 360.016 566.797 360.314 566.797 360.625C566.797 360.936 566.92 361.234 567.14 361.454C567.36 361.673 567.658 361.797 567.969 361.797H582.031C582.342 361.797 582.64 361.673 582.86 361.454C583.08 361.234 583.203 360.936 583.203 360.625C583.203 360.314 583.08 360.016 582.86 359.796C582.64 359.577 582.342 359.453 582.031 359.453ZM590.234 359.453H586.719C586.408 359.453 586.11 359.577 585.89 359.796C585.67 360.016 585.547 360.314 585.547 360.625C585.547 360.936 585.67 361.234 585.89 361.454C586.11 361.673 586.408 361.797 586.719 361.797H590.234C590.545 361.797 590.843 361.673 591.063 361.454C591.283 361.234 591.406 360.936 591.406 360.625C591.406 360.314 591.283 360.016 591.063 359.796C590.843 359.577 590.545 359.453 590.234 359.453ZM594.922 359.453C594.611 359.453 594.313 359.577 594.093 359.796C593.873 360.016 593.75 360.314 593.75 360.625C593.75 360.936 593.873 361.234 594.093 361.454C594.313 361.673 594.611 361.797 594.922 361.797H598.438C598.748 361.797 599.046 361.673 599.266 361.454C599.486 361.234 599.609 360.936 599.609 360.625C599.609 360.314 599.486 360.016 599.266 359.796C599.046 359.577 598.748 359.453 598.438 359.453H594.922Z" fill="black"></path><path d="M549.8 156.42L543.83 150.45C543.23 149.85 542.3 149.85 541.7 150.45L537.62 154.5L535.91 152.79C535.31 152.19 534.38 152.19 533.78 152.79L509.54 177.09C508.01 178.62 508.01 181.11 509.51 182.64L505.7 186.45C505.1 187.05 505.1 187.98 505.7 188.58L511.67 194.55C511.97 194.85 512.36 195 512.72 195C513.08 195 513.5 194.85 513.77 194.55L517.58 190.74C518.33 191.46 519.29 191.88 520.34 191.88C521.39 191.88 522.38 191.46 523.13 190.74L536.99 176.88C537.41 176.94 537.83 177 538.25 177C539.6 177 540.83 176.55 541.82 175.77C543.41 179.31 544.25 183.15 544.25 187.05C544.25 201.36 533.48 213 520.25 213C514.55 213 509.24 210.87 504.95 207H517.25V204H487.25V207H500.72C503.9 210.57 507.74 213.18 511.97 214.62L504.17 222.42C503.75 222.84 503.6 223.5 503.84 224.04C504.11 224.64 504.65 225 505.25 225H535.25C535.85 225 536.39 224.64 536.63 224.07C536.87 223.5 536.72 222.87 536.3 222.45L528.47 214.62C539.33 210.87 547.25 199.95 547.25 187.05C547.25 182.16 546.05 177.42 543.86 173.13C544.1 172.47 544.25 171.75 544.25 171C544.25 170.58 544.19 170.16 544.13 169.77L547.46 166.44C548.06 165.84 548.06 164.91 547.46 164.31L545.75 162.63L549.83 158.55C550.4 157.95 550.4 157.02 549.8 156.42ZM525.62 216L531.62 222H508.88L514.88 216H525.62ZM512.72 191.37L508.85 187.5L511.61 184.74L515.48 188.61L512.72 191.37ZM538.25 174C536.6 174 535.25 172.65 535.25 171C535.25 169.35 536.6 168 538.25 168C539.9 168 541.25 169.35 541.25 171C541.25 172.65 539.9 174 538.25 174ZM542.66 166.98C541.58 165.78 539.99 165 538.25 165C534.95 165 532.25 167.7 532.25 171C532.25 172.74 533.03 174.33 534.23 175.41L521.03 188.61C520.67 188.97 520.07 188.97 519.71 188.61L511.64 180.54C511.28 180.18 511.28 179.58 511.64 179.22L534.86 156L544.25 165.39L542.66 166.98ZM543.62 160.5L539.75 156.63L542.75 153.63L546.62 157.5L543.62 160.5Z" fill="#131414"></path><path d="M240.651 494.012C254.031 480.273 244.434 456.991 225 456.875C219.201 456.883 213.641 459.19 209.541 463.291C205.44 467.391 203.133 472.951 203.125 478.75C203.264 498.463 227.071 507.914 240.651 494.012ZM239.873 492.565C236.236 490.446 232.766 488.052 229.494 485.405C234.267 479.919 241.602 478.592 245.301 478.287C245.43 483.573 243.481 488.699 239.873 492.565ZM220.196 478.861C222.427 481.266 224.806 483.53 227.317 485.64C224.742 489.175 223.384 493.655 223.272 498.984C218.912 498.614 214.789 496.84 211.522 493.929C213.291 488.339 216.251 483.199 220.196 478.861ZM221.255 477.706C226.563 472.282 232.858 467.922 239.802 464.859C242.865 468.11 244.766 472.282 245.211 476.727C241.293 477.045 233.44 478.461 228.288 484.413C225.806 482.326 223.457 480.086 221.255 477.706ZM238.605 463.681C231.731 466.799 225.492 471.161 220.202 476.547C218.293 474.412 216.513 472.164 214.873 469.816C219.916 465.594 221.067 461.063 221.303 458.78C224.37 458.218 227.525 458.367 230.525 459.216C233.525 460.066 236.289 461.594 238.605 463.681ZM210.041 465.025C210.884 466.553 211.791 468.045 212.759 469.496C210.486 471.137 208.008 472.473 205.387 473.47C206.238 470.322 207.834 467.425 210.041 465.025ZM211.191 463.871C213.597 461.633 216.511 460.012 219.681 459.148C219.355 461.292 218.152 464.985 213.988 468.521C212.986 467.014 212.053 465.463 211.191 463.871ZM204.688 478.75C204.689 477.589 204.79 476.431 204.989 475.287C208.072 474.201 210.985 472.686 213.645 470.785C215.335 473.198 217.169 475.507 219.137 477.7C215.173 482.038 212.155 487.153 210.273 492.72C206.685 488.954 204.685 483.951 204.688 478.75ZM224.831 499.059C224.93 494.076 226.172 489.904 228.527 486.633C231.75 489.237 235.161 491.599 238.732 493.702C234.95 497.192 229.978 499.108 224.831 499.059Z" fill="#231F20"></path><path d="M86.6246 473.66L79.0872 459.943C78.8873 459.579 78.8809 459.129 79.0693 458.69C79.2577 458.252 79.6255 457.862 80.0919 457.605L160.98 413.156C161.447 412.9 161.973 412.798 162.444 412.874C162.916 412.95 163.293 413.198 163.493 413.561L171.03 427.278C171.23 427.642 171.236 428.092 171.048 428.531C170.859 428.969 170.492 429.36 170.025 429.616L89.1368 474.065C88.1696 474.596 87.0392 474.414 86.6246 473.66ZM83.3578 459.382L89.3877 470.355L166.759 427.839L160.729 416.866L83.3578 459.382Z" fill="black"></path><path d="M153.194 428.15L150.179 422.663C149.979 422.3 149.972 421.849 150.161 421.41C150.349 420.972 150.717 420.582 151.183 420.325C151.65 420.069 152.176 419.968 152.648 420.044C153.119 420.12 153.496 420.367 153.696 420.731L156.711 426.217C156.91 426.581 156.917 427.032 156.728 427.47C156.54 427.909 156.172 428.299 155.706 428.555C155.239 428.812 154.713 428.913 154.242 428.837C153.771 428.761 153.394 428.514 153.194 428.15ZM144.652 429.272L143.145 426.528C142.945 426.165 142.939 425.714 143.127 425.276C143.315 424.837 143.683 424.447 144.15 424.191C144.616 423.934 145.143 423.833 145.614 423.909C146.085 423.985 146.462 424.232 146.662 424.596L148.169 427.339C148.369 427.703 148.376 428.154 148.187 428.592C147.999 429.031 147.631 429.421 147.165 429.677C146.698 429.933 146.172 430.035 145.7 429.959C145.229 429.883 144.852 429.636 144.652 429.272ZM139.126 435.88L136.111 430.394C135.911 430.03 135.905 429.579 136.093 429.141C136.282 428.702 136.649 428.312 137.116 428.056C137.582 427.799 138.109 427.698 138.58 427.774C139.051 427.85 139.428 428.097 139.628 428.461L142.643 433.948C142.843 434.311 142.849 434.762 142.661 435.201C142.473 435.639 142.105 436.029 141.638 436.286C141.172 436.542 140.645 436.643 140.174 436.567C139.703 436.491 139.326 436.244 139.126 435.88ZM130.585 437.002L129.077 434.259C128.877 433.895 128.871 433.444 129.059 433.006C129.248 432.567 129.616 432.177 130.082 431.921C130.548 431.665 131.075 431.563 131.546 431.639C132.017 431.715 132.394 431.962 132.594 432.326L134.102 435.069C134.302 435.433 134.308 435.884 134.12 436.322C133.931 436.761 133.563 437.151 133.097 437.407C132.631 437.664 132.104 437.765 131.633 437.689C131.162 437.613 130.785 437.366 130.585 437.002ZM125.059 443.611L122.044 438.124C121.844 437.76 121.837 437.309 122.026 436.871C122.214 436.433 122.582 436.042 123.048 435.786C123.515 435.53 124.041 435.428 124.512 435.504C124.984 435.58 125.361 435.828 125.56 436.191L128.575 441.678C128.775 442.042 128.782 442.492 128.593 442.931C128.405 443.369 128.037 443.76 127.571 444.016C127.104 444.272 126.578 444.373 126.107 444.297C125.635 444.221 125.258 443.974 125.059 443.611ZM116.517 444.732L115.01 441.989C114.81 441.625 114.803 441.175 114.992 440.736C115.18 440.298 115.548 439.907 116.015 439.651C116.481 439.395 117.008 439.294 117.479 439.37C117.95 439.446 118.327 439.693 118.527 440.056L120.034 442.8C120.234 443.164 120.241 443.614 120.052 444.053C119.864 444.491 119.496 444.881 119.029 445.138C118.563 445.394 118.036 445.495 117.565 445.419C117.094 445.343 116.717 445.096 116.517 444.732ZM110.991 451.341L107.976 445.854C107.776 445.49 107.77 445.04 107.958 444.601C108.147 444.163 108.514 443.773 108.981 443.516C109.447 443.26 109.974 443.159 110.445 443.235C110.916 443.311 111.293 443.558 111.493 443.922L114.508 449.408C114.708 449.772 114.714 450.223 114.526 450.661C114.337 451.1 113.97 451.49 113.503 451.746C113.037 452.002 112.51 452.104 112.039 452.028C111.568 451.952 111.191 451.705 110.991 451.341ZM102.45 452.463L100.942 449.719C100.742 449.356 100.736 448.905 100.924 448.466C101.113 448.028 101.481 447.638 101.947 447.381C102.413 447.125 102.94 447.024 103.411 447.1C103.882 447.176 104.259 447.423 104.459 447.787L105.967 450.53C106.167 450.894 106.173 451.345 105.985 451.783C105.796 452.221 105.428 452.612 104.962 452.868C104.496 453.124 103.969 453.226 103.498 453.15C103.027 453.074 102.65 452.826 102.45 452.463ZM96.9235 459.071L93.9085 453.585C93.7086 453.221 93.7021 452.77 93.8906 452.332C94.079 451.893 94.4468 451.503 94.9132 451.247C95.3796 450.99 95.9063 450.889 96.3774 450.965C96.8485 451.041 97.2255 451.288 97.4254 451.652L100.44 457.139C100.64 457.502 100.647 457.953 100.458 458.391C100.27 458.83 99.902 459.22 99.4356 459.476C98.9693 459.733 98.4426 459.834 97.9715 459.758C97.5003 459.682 97.1234 459.435 96.9235 459.071ZM88.3822 460.193L86.8747 457.45C86.6748 457.086 86.6684 456.635 86.8568 456.197C87.0452 455.758 87.4131 455.368 87.8794 455.112C88.3458 454.855 88.8725 454.754 89.3436 454.83C89.8147 454.906 90.1917 455.153 90.3916 455.517L91.8991 458.26C92.099 458.624 92.1055 459.075 91.917 459.513C91.7286 459.952 91.3608 460.342 90.8944 460.598C90.428 460.855 89.9013 460.956 89.4302 460.88C88.9591 460.804 88.5821 460.557 88.3822 460.193Z" fill="black"></path><path d="M613.702 223.522L632.06 184.867C633.005 182.96 632.696 180.734 631.309 179.445C629.923 178.155 627.68 178.009 625.847 179.091L588.63 200.214C587.391 200.879 586.48 201.97 585.962 203.306C585.445 204.641 585.446 205.975 585.976 207.073C586.183 207.629 586.511 208.055 586.899 208.416C587.398 208.88 587.963 209.163 588.648 209.315C589.903 209.634 591.238 209.422 592.421 208.705L602.111 203.177L609.766 210.293L604.952 220.476C604.062 222.434 604.316 224.608 605.703 225.898C606.091 226.259 606.54 226.555 607.109 226.721C608.304 227.104 609.634 227.008 610.868 226.46C612.046 225.859 613.129 224.806 613.702 223.522ZM610.297 224.96C609.471 225.403 608.605 225.446 607.808 225.19C607.47 224.997 607.188 224.856 606.911 224.598C605.968 223.721 605.8 222.233 606.374 220.949L611.438 210.273C611.624 209.962 611.584 209.561 611.362 209.354L602.931 201.516C602.709 201.31 602.306 201.298 602.009 201.507L591.73 207.335C590.904 207.779 590.032 207.937 589.236 207.682C588.44 207.426 587.769 206.924 587.456 206.148C587.143 205.372 587.122 204.505 587.504 203.649C587.887 202.793 588.496 202.027 589.322 201.583L626.539 180.461C627.722 179.744 629.158 179.868 630.101 180.744C631.044 181.621 631.212 183.109 630.638 184.393L612.281 223.049C611.843 223.853 611.178 224.568 610.297 224.96Z" fill="black"></path><path d="M619.667 192.969C619.853 192.658 619.812 192.256 619.59 192.05C619.368 191.844 618.965 191.832 618.668 192.041L610.102 196.917C609.865 197.061 609.684 197.255 609.614 197.553C609.543 197.852 609.649 198.071 609.816 198.226L614.142 202.248C614.309 202.403 614.596 202.428 614.828 202.401C615.12 202.309 615.301 202.114 615.427 201.868L619.667 192.969ZM611.8 197.648L617.234 194.584L614.574 200.227L611.8 197.648Z" fill="black"></path><path d="M268.014 162.508C264.614 162.603 261.189 163.608 258.04 165.613C247.966 172.033 244.507 186.291 250.324 197.411C255.016 206.386 264.333 210.591 273.049 208.511L276.721 215.521C276.872 215.806 277.119 216.014 277.408 216.099C277.697 216.184 278.005 216.14 278.265 215.975L278.636 215.741L288.647 234.885C289.279 236.085 290.315 236.961 291.53 237.32C292.746 237.68 294.04 237.495 295.132 236.805C296.22 236.106 297.013 234.961 297.338 233.62C297.663 232.279 297.495 230.85 296.869 229.645L286.854 210.501L287.225 210.266C287.355 210.184 287.468 210.075 287.559 209.944C287.649 209.814 287.716 209.666 287.755 209.507C287.794 209.349 287.804 209.183 287.784 209.02C287.765 208.857 287.717 208.7 287.643 208.558L284.016 201.628C290.159 194.341 291.591 183.198 286.849 174.133C284.95 170.505 282.197 167.509 278.882 165.463C275.566 163.417 271.812 162.396 268.014 162.508ZM268.082 164.993C271.472 164.893 274.823 165.805 277.781 167.635C280.739 169.464 283.193 172.141 284.884 175.383C286.122 177.745 286.926 180.354 287.25 183.059C287.574 185.764 287.411 188.513 286.771 191.148C286.131 193.784 285.027 196.255 283.52 198.419C282.014 200.584 280.136 202.4 277.993 203.763C275.853 205.129 273.49 206.017 271.039 206.374C268.587 206.731 266.096 206.552 263.708 205.845C261.32 205.139 259.082 203.92 257.121 202.258C255.161 200.596 253.517 198.524 252.285 196.161C251.046 193.798 250.242 191.19 249.918 188.485C249.594 185.78 249.757 183.031 250.397 180.396C251.037 177.76 252.142 175.289 253.648 173.125C255.154 170.96 257.033 169.144 259.176 167.781C261.887 166.045 264.949 165.087 268.082 164.993ZM268.143 167.688C265.415 167.763 262.748 168.593 260.386 170.101C252.557 175.091 249.868 186.181 254.388 194.823C256.564 198.974 260.145 202.002 264.344 203.242C268.543 204.483 273.017 203.834 276.782 201.438C280.545 199.034 283.29 195.083 284.415 190.45C285.541 185.818 284.954 180.882 282.785 176.726C281.308 173.905 279.168 171.577 276.591 169.986C274.014 168.395 271.095 167.602 268.143 167.688ZM268.211 170.173C270.756 170.098 273.272 170.784 275.493 172.158C277.713 173.531 279.555 175.542 280.824 177.976C281.754 179.749 282.358 181.706 282.601 183.737C282.844 185.767 282.722 187.831 282.241 189.809C281.76 191.787 280.931 193.642 279.799 195.266C278.668 196.891 277.258 198.253 275.649 199.276C274.043 200.302 272.269 200.969 270.429 201.238C268.589 201.507 266.718 201.373 264.925 200.843C263.132 200.314 261.452 199.399 259.98 198.151C258.508 196.903 257.274 195.348 256.349 193.573C255.419 191.8 254.815 189.842 254.571 187.812C254.328 185.781 254.449 183.717 254.93 181.739C255.41 179.76 256.239 177.905 257.37 176.28C258.501 174.655 259.911 173.292 261.52 172.268C263.556 170.965 265.858 170.244 268.211 170.173ZM282.325 203.406L285.111 208.731L278.115 213.186L275.311 207.826C276.637 207.333 277.916 206.697 279.128 205.926C280.284 205.188 281.345 204.336 282.325 203.406ZM284.893 211.751L294.908 230.895C295.075 231.206 295.183 231.549 295.228 231.907C295.273 232.264 295.252 232.627 295.168 232.976C295.083 233.324 294.937 233.65 294.736 233.935C294.536 234.22 294.286 234.458 294.001 234.635C293.72 234.82 293.408 234.941 293.085 234.99C292.761 235.04 292.431 235.017 292.115 234.924C291.799 234.831 291.504 234.669 291.245 234.448C290.987 234.226 290.772 233.95 290.612 233.635L280.597 214.491L284.893 211.751Z" fill="black"></path><path d="M567.221 502.589C567.997 502.979 568.646 503.569 569.095 504.293C569.544 505.018 569.776 505.848 569.765 506.691C569.752 507.165 569.659 507.634 569.491 508.08C567.944 512.366 565.102 516.106 561.332 518.819C557.628 521.488 553.101 522.879 548.475 522.77C545.56 522.681 542.695 522.009 540.061 520.796C537.427 519.583 535.082 517.856 533.175 515.724C529.109 511.217 526.957 505.396 527.15 499.43C527.309 493.052 529.174 488.037 532.439 484.633C535.703 481.228 540.406 479.442 546.491 479.593C547.824 479.579 549.142 479.867 550.339 480.435C551.115 480.841 551.792 481.402 552.325 482.081C553.312 483.458 553.976 485.026 554.269 486.675C554.77 489.171 555.026 491.707 555.033 494.248C555.05 495.916 555.727 497.516 556.926 498.721L558.05 497.697C557.114 496.761 556.59 495.511 556.589 494.212C556.463 488.685 555.794 484.78 554.205 482.113C553.479 480.843 552.39 479.8 551.068 479.109C549.663 478.45 548.119 478.115 546.558 478.131C540.133 477.972 534.908 479.917 531.334 483.642C527.759 487.368 525.768 492.76 525.604 499.391C525.405 505.738 527.7 511.927 532.029 516.718C534.075 519.002 536.591 520.852 539.415 522.151C542.24 523.449 545.313 524.168 548.438 524.262C553.408 524.377 558.271 522.884 562.254 520.022C566.275 517.135 569.304 513.148 570.949 508.579C571.173 507.986 571.296 507.361 571.312 506.729C571.33 505.608 571.025 504.504 570.43 503.54C569.835 502.576 568.973 501.79 567.942 501.271L567.221 502.589Z" fill="black"></path><path d="M548.384 486.972C548.373 487.408 548.23 487.832 547.972 488.189C547.714 488.545 547.354 488.819 546.936 488.976C546.518 489.133 546.061 489.165 545.624 489.069C545.187 488.973 544.789 488.753 544.48 488.437C544.171 488.12 543.965 487.721 543.888 487.291C543.812 486.861 543.867 486.418 544.049 486.019C544.23 485.62 544.529 485.283 544.907 485.049C545.286 484.816 545.727 484.698 546.175 484.709C546.775 484.724 547.345 484.97 547.76 485.395C548.174 485.819 548.399 486.387 548.384 486.972L549.894 487.009C549.912 486.282 549.708 485.565 549.308 484.95C548.909 484.335 548.331 483.849 547.648 483.553C546.966 483.258 546.209 483.166 545.473 483.29C544.738 483.414 544.056 483.747 543.516 484.249C542.975 484.75 542.6 485.396 542.436 486.106C542.273 486.816 542.329 487.558 542.598 488.237C542.867 488.916 543.337 489.502 543.947 489.922C544.558 490.342 545.282 490.576 546.028 490.594C547.029 490.619 547.999 490.255 548.724 489.583C549.449 488.911 549.87 487.985 549.894 487.009L548.384 486.972ZM539.227 493.215C539.216 493.651 539.072 494.075 538.815 494.432C538.557 494.788 538.196 495.062 537.778 495.219C537.36 495.376 536.904 495.408 536.467 495.312C536.03 495.216 535.631 494.996 535.322 494.68C535.013 494.363 534.807 493.964 534.731 493.534C534.654 493.104 534.71 492.661 534.891 492.262C535.073 491.863 535.371 491.526 535.75 491.292C536.128 491.059 536.569 490.941 537.017 490.952C537.618 490.967 538.188 491.214 538.602 491.638C539.016 492.062 539.241 492.63 539.227 493.215L540.736 493.252C540.754 492.525 540.551 491.808 540.151 491.193C539.751 490.578 539.174 490.092 538.491 489.796C537.808 489.501 537.051 489.409 536.316 489.533C535.58 489.657 534.899 489.99 534.358 490.491C533.818 490.993 533.442 491.639 533.279 492.349C533.115 493.059 533.172 493.801 533.441 494.48C533.71 495.159 534.179 495.746 534.79 496.165C535.4 496.585 536.125 496.818 536.871 496.837C537.367 496.849 537.86 496.766 538.322 496.593C538.785 496.419 539.207 496.159 539.566 495.826C539.925 495.493 540.213 495.095 540.414 494.653C540.615 494.211 540.724 493.736 540.736 493.252L539.227 493.215ZM537.28 503.494C537.269 503.931 537.125 504.354 536.867 504.711C536.61 505.068 536.249 505.342 535.831 505.499C535.413 505.655 534.957 505.688 534.52 505.592C534.083 505.496 533.684 505.275 533.375 504.959C533.066 504.642 532.86 504.244 532.784 503.814C532.707 503.383 532.763 502.941 532.944 502.542C533.126 502.143 533.424 501.805 533.803 501.572C534.181 501.339 534.622 501.22 535.07 501.231C535.671 501.246 536.241 501.493 536.655 501.917C537.069 502.342 537.294 502.909 537.28 503.494L538.789 503.532C538.807 502.804 538.603 502.088 538.204 501.472C537.804 500.857 537.226 500.371 536.544 500.076C535.861 499.78 535.104 499.688 534.369 499.812C533.633 499.936 532.952 500.27 532.411 500.771C531.871 501.272 531.495 501.919 531.332 502.629C531.168 503.338 531.225 504.08 531.494 504.759C531.763 505.438 532.232 506.025 532.843 506.444C533.453 506.864 534.177 507.098 534.924 507.116C535.925 507.141 536.894 506.778 537.619 506.105C538.344 505.433 538.765 504.507 538.789 503.532L537.28 503.494ZM542.155 512.743C542.144 513.18 542.001 513.603 541.743 513.96C541.485 514.317 541.125 514.591 540.707 514.747C540.289 514.904 539.833 514.937 539.395 514.841C538.958 514.745 538.56 514.524 538.251 514.208C537.942 513.891 537.736 513.493 537.659 513.062C537.583 512.632 537.639 512.189 537.82 511.79C538.001 511.391 538.3 511.054 538.679 510.821C539.057 510.587 539.498 510.469 539.946 510.48C540.546 510.495 541.116 510.742 541.531 511.166C541.945 511.591 542.17 512.158 542.155 512.743L543.665 512.781C543.683 512.053 543.479 511.337 543.08 510.721C542.68 510.106 542.102 509.62 541.42 509.325C540.737 509.029 539.98 508.937 539.244 509.061C538.509 509.185 537.828 509.518 537.287 510.02C536.746 510.521 536.371 511.168 536.207 511.878C536.044 512.587 536.1 513.329 536.369 514.008C536.638 514.687 537.108 515.274 537.718 515.693C538.329 516.113 539.053 516.347 539.8 516.365C540.295 516.378 540.788 516.295 541.251 516.121C541.713 515.948 542.136 515.687 542.495 515.354C542.854 515.021 543.142 514.623 543.343 514.181C543.543 513.74 543.653 513.264 543.665 512.781L542.155 512.743ZM554.518 508.825L554.972 509.403C555.958 508.709 556.809 507.847 557.482 506.86C558.023 506.044 558.326 505.1 558.358 504.128C558.367 503.536 558.285 502.946 558.114 502.378C557.982 501.946 557.922 501.498 557.936 501.048C557.965 499.903 558.45 498.814 559.288 498.012C559.685 497.618 560.16 497.306 560.685 497.095C561.209 496.885 561.772 496.779 562.339 496.785C562.714 496.794 563.086 496.852 563.445 496.96L563.827 497.087C564.756 497.438 565.554 498.056 566.116 498.858C566.677 499.661 566.975 500.611 566.97 501.582C566.952 502.138 566.828 502.687 566.605 503.199C565.831 505.116 564.351 506.683 562.456 507.594C560.976 508.258 559.357 508.575 557.728 508.522C557.005 508.501 556.284 508.427 555.573 508.299C555.31 508.248 555.1 508.206 554.965 508.166L554.806 508.162L554.592 508.893L554.37 509.624C555.469 509.906 556.598 510.063 557.734 510.09C559.616 510.162 561.488 509.799 563.198 509.033C565.418 507.966 567.155 506.138 568.076 503.898C568.383 503.204 568.551 502.459 568.569 501.702C568.583 500.427 568.197 499.177 567.464 498.12C566.73 497.063 565.684 496.248 564.464 495.785L563.969 495.618C563.48 495.477 562.974 495.397 562.465 495.382C561.691 495.37 560.923 495.509 560.206 495.792C559.489 496.075 558.838 496.497 558.292 497.03C557.514 497.777 556.958 498.715 556.684 499.745C556.41 500.775 556.427 501.859 556.735 502.881C556.864 503.302 556.927 503.741 556.922 504.181C556.899 504.889 556.676 505.576 556.276 506.167C555.697 507.003 554.97 507.733 554.13 508.322C554.018 508.406 553.931 508.518 553.882 508.647C553.832 508.776 553.82 508.916 553.848 509.051C553.872 509.184 553.934 509.308 554.026 509.409C554.118 509.51 554.237 509.584 554.37 509.624L554.518 508.825Z" fill="black"></path><path d="M566.317 499.085C568.188 496.185 569.794 493.153 571.119 490.018C572.184 487.537 573.091 485.003 573.836 482.429C574.423 480.573 574.787 478.665 574.922 476.738C574.957 476.148 574.892 475.556 574.729 474.983C574.653 474.734 574.531 474.498 574.367 474.285C574.186 474.052 573.932 473.872 573.638 473.767C573.474 473.704 573.297 473.668 573.118 473.663C572.668 473.67 572.231 473.796 571.862 474.026C571.106 474.509 570.444 475.102 569.905 475.78C567.882 478.138 565.461 482.304 563.315 487.264C561.964 490.318 560.885 493.464 560.089 496.673L561.767 496.988C562.54 493.872 563.582 490.816 564.885 487.848C566.233 484.637 567.889 481.539 569.835 478.588C570.453 477.634 571.172 476.736 571.984 475.907C572.214 475.673 572.477 475.466 572.766 475.291C572.844 475.246 572.927 475.207 573.013 475.176L573.064 475.177L573.067 475.056L573.03 475.176L573.081 475.177L573.084 475.056L572.997 475.152L573.05 475.033L572.964 475.129C573.055 475.25 573.112 475.389 573.131 475.534C573.216 475.917 573.252 476.307 573.237 476.696C573.126 478.507 572.798 480.302 572.261 482.049C571.517 484.569 570.611 487.047 569.548 489.471C568.253 492.525 566.689 495.479 564.87 498.307L566.317 499.1L566.317 499.085Z" fill="black"></path><path d="M328.659 145.997H327.698C327.369 145.997 327.103 146.263 327.103 146.592C327.103 146.921 327.369 147.187 327.698 147.187H328.659C328.988 147.187 329.254 146.921 329.254 146.592C329.254 146.263 328.988 145.997 328.659 145.997ZM384.802 145.997H383.267C382.938 145.997 382.671 146.263 382.671 146.592C382.671 146.921 382.938 147.187 383.267 147.187H384.802C385.131 147.187 385.397 146.921 385.397 146.592C385.397 146.263 385.131 145.997 384.802 145.997ZM377.828 137.656C377.679 137.949 377.795 138.308 378.088 138.457C378.381 138.606 378.74 138.489 378.888 138.197L382.537 131.036C383.473 129.199 382.74 126.942 380.903 126.007L366.795 118.818C366.447 118.641 366.084 118.523 365.718 118.462C366.172 117.614 366.303 116.594 366 115.604L361.373 100.461C360.77 98.4886 358.675 97.3731 356.704 97.9771L341.561 102.604C339.589 103.206 338.475 105.301 339.078 107.274L340.27 111.177C340.366 111.491 340.7 111.67 341.013 111.572C341.328 111.476 341.505 111.144 341.409 110.829L340.216 106.926C339.805 105.581 340.565 104.153 341.908 103.742L357.052 99.1152C358.4 98.7042 359.824 99.4646 360.235 100.809L364.862 115.952C365.152 116.901 364.85 117.884 364.18 118.529C363.643 118.666 363.136 118.918 362.704 119.277L348.026 123.762C346.68 124.173 345.254 123.412 344.843 122.068L342.515 114.45C342.418 114.136 342.083 113.957 341.772 114.055C341.457 114.151 341.28 114.483 341.377 114.798L343.705 122.416C343.877 122.981 344.177 123.47 344.556 123.873H335.785C333.723 123.873 332.045 125.551 332.045 127.613V143.448C332.045 144.433 332.431 145.328 333.056 145.997H331.145C330.816 145.997 330.55 146.263 330.55 146.592C330.55 146.921 330.816 147.187 331.145 147.187C346.094 147.187 366.097 147.187 380.929 147.187C381.258 147.187 381.524 146.921 381.524 146.592C381.524 146.263 381.258 145.997 380.929 145.997H374.731C374.969 145.742 375.186 145.464 375.349 145.144L377.373 141.172C377.522 140.879 377.406 140.52 377.113 140.371C376.819 140.222 376.46 140.338 376.313 140.631L374.289 144.604C373.651 145.855 372.118 146.36 370.859 145.718L356.751 138.53C355.499 137.892 354.999 136.354 355.637 135.102L362.825 120.993C362.956 120.737 363.131 120.521 363.327 120.331L363.517 120.273C363.973 120.134 364.381 119.912 364.734 119.633C365.238 119.559 365.767 119.631 366.254 119.878L380.362 127.067C381.614 127.705 382.114 129.243 381.477 130.495L377.828 137.656ZM335.785 145.997C334.379 145.997 333.236 144.853 333.236 143.448V127.613C333.236 126.208 334.379 125.064 335.785 125.064H351.619C353.024 125.064 354.168 126.208 354.168 127.613V143.448C354.168 144.853 353.024 145.997 351.619 145.997H335.785ZM356.21 139.59L368.784 145.997H354.347C354.972 145.328 355.358 144.433 355.358 143.448V138.99C355.608 139.223 355.891 139.428 356.21 139.59ZM355.358 133.026V127.613C355.358 125.584 353.733 123.931 351.717 123.878L361.55 120.874L355.358 133.026Z" fill="black"></path><path d="M350.977 107.39L353.498 115.532L354.716 115.154L351.832 105.838L350.757 106.171L349.058 107.89L349.599 108.775L350.948 107.4L350.977 107.39Z" fill="black"></path><path d="M342.25 139.119L343.104 138.331C345.355 136.162 346.784 134.568 346.784 132.597C346.784 131.069 345.815 129.491 343.515 129.491C342.282 129.491 341.231 129.951 340.491 130.576L340.952 131.594C341.445 131.184 342.25 130.691 343.219 130.691C344.813 130.691 345.339 131.693 345.339 132.778C345.322 134.388 344.089 135.768 341.362 138.364L340.229 139.465V140.352H347.047V139.153H342.25V139.119ZM372.075 130.888C372.534 129.807 372.182 128.43 370.43 127.685C369.473 127.278 368.424 127.237 367.814 127.381L367.756 128.391C368.255 128.28 369.073 128.255 369.785 128.557C370.893 129.029 371.077 129.85 370.775 130.562C370.327 131.615 369.027 131.596 368.151 131.224L367.48 130.939L367.097 131.842L367.767 132.127C368.93 132.621 369.826 133.632 369.31 134.883C369.01 135.627 368.112 136.409 366.566 135.753C365.731 135.398 365.083 134.718 364.834 134.354L364.11 135.145C364.426 135.618 365.168 136.305 366.167 136.73C368.302 137.637 369.94 136.862 370.544 135.439C371.073 134.194 370.532 132.995 369.531 132.311L369.542 132.283C370.805 132.352 371.685 131.804 372.075 130.888Z" fill="black"></path><path d="M800 400C800 620.914 620.914 800 400 800C179.086 800 0 620.914 0 400C0 179.086 179.086 0 400 0C620.914 0 800 179.086 800 400Z" fill="#209BE0"></path><path d="M762.5 400C762.5 600.203 600.203 762.5 400 762.5C199.797 762.5 37.5 600.203 37.5 400C37.5 199.797 199.797 37.5 400 37.5C600.203 37.5 762.5 199.797 762.5 400Z" fill="#FFCC00"></path><path d="M352.733 662.435L398.908 731.25V668.75H405.557V731.25L452.037 662.175C454.054 659.178 454.445 655.375 453.082 652.03L439.498 618.706C434.673 606.868 431.198 594.524 429.141 581.908L427.977 574.767C424.697 554.649 424.58 534.142 427.632 513.988C430.651 496.892 437.996 480.853 448.966 467.397L478.289 431.429L423.026 474.881V445.235C423.026 425.936 424.877 406.682 428.553 387.736C431.005 375.099 434.473 362.681 438.923 350.602L441.447 343.75L455.263 312.5L478.289 268.75L473.323 272.794C461.331 282.559 450.621 293.8 441.447 306.25L423.026 331.25L422.575 332.016C410.65 352.246 401.507 373.992 395.395 396.667L381.579 440.119C360.314 424.355 336.968 411.112 312.5 401.012L337.361 427.402C345.312 435.842 352.094 445.312 357.523 455.557L361.87 463.76C365.783 471.143 368.733 478.998 370.649 487.132L371.396 490.305C375.102 506.041 376.974 522.153 376.974 538.32C376.974 556.783 374.579 575.168 369.851 593.015L367.763 600.893L351.229 651.595C350.038 655.247 350.593 659.245 352.733 662.435Z" fill="#313536"></path><path d="M414.438 659.119C414.438 665.839 408.953 671.286 402.188 671.286C395.422 671.286 389.938 665.839 389.938 659.119C389.938 652.4 395.422 646.952 402.188 646.952C408.953 646.952 414.438 652.4 414.438 659.119Z" fill="#FFCC00"></path><path d="M381.25 384.375C381.25 396.456 371.456 406.25 359.375 406.25C347.294 406.25 337.5 396.456 337.5 384.375C337.5 372.294 347.294 362.5 359.375 362.5C371.456 362.5 381.25 372.294 381.25 384.375Z" fill="#313536"></path><path d="M481.25 409.375C481.25 421.456 471.456 431.25 459.375 431.25C447.294 431.25 437.5 421.456 437.5 409.375C437.5 397.294 447.294 387.5 459.375 387.5C471.456 387.5 481.25 397.294 481.25 409.375Z" fill="#313536"></path><path d="M501.542 235.086L476.215 261.99L479.029 239.344C480.827 224.874 483.656 210.55 487.495 196.483C491.376 181.682 499.797 168.47 511.575 158.702L513.03 157.495C520.95 150.926 529.801 145.568 539.293 141.596L558.318 133.634L557.676 157.751C556.485 202.466 531.252 243.057 491.679 263.912L501.542 235.086Z" fill="#E42B33"></path><path d="M535.98 343.794L500 359.917L521.771 366.455C535.786 370.664 550.13 373.685 564.652 375.486C579.788 377.543 595.171 374.332 608.22 366.393L613.022 363.471C621.729 358.173 629.646 351.674 636.539 344.167L654.012 325.134L640.06 319.132C594.513 299.538 541.699 308.607 505.298 342.273L535.98 343.794Z" fill="#EF7530"></path><path d="M514.981 477.407L490.199 450L512.545 454.625C526.825 457.58 540.875 461.551 554.588 466.508C569.029 471.566 581.522 481.021 590.312 493.546L591.398 495.094C597.309 503.516 601.938 512.768 605.135 522.549L611.542 542.153L587.555 539.575C543.08 534.794 504.648 506.38 487.041 465.26L514.981 477.407Z" fill="#FDC645"></path><path d="M293.411 238.235L315.775 262.346L314.869 243.191C314.286 230.875 312.693 218.629 310.105 206.575C307.545 193.952 300.776 182.571 290.907 174.296L287.676 171.586C281.083 166.058 273.738 161.497 265.86 158.038L246.575 149.571L245.671 163.592C243.024 204.635 264.488 243.469 300.65 263.062L293.411 238.235Z" fill="#AD529F"></path><path d="M388.217 258.848L398.555 267.624L398.224 260.628C398.008 256.062 397.319 251.531 396.167 247.108C395.038 242.504 392.207 238.499 388.245 235.898L385.199 233.899C382.572 232.175 379.736 230.794 376.76 229.79L366.744 226.41C365.07 244.118 375.079 261.081 391.483 267.959L388.217 258.848Z" fill="#FDC645"></path><path d="M380.957 311.783L388.377 318.079L388.139 313.06C387.984 309.784 387.49 306.534 386.663 303.36C385.853 300.058 383.822 297.185 380.978 295.319L378.79 293.884C376.906 292.648 374.871 291.657 372.736 290.937L365.546 288.512C364.344 301.219 371.528 313.385 383.301 318.319L380.957 311.783Z" fill="#3ABF49"></path><path d="M246.355 328.845L276.663 349.981L253.849 350.497C239.271 350.828 224.688 350.116 210.211 348.368C195.003 346.686 180.704 340.28 169.324 330.052L167.918 328.788C160.265 321.91 153.674 313.935 148.361 305.123L137.712 287.461L161.664 284.581C206.076 279.242 249.911 298.291 276.31 334.402L246.355 328.845Z" fill="#1180C6"></path><path d="M251.567 461.839L281.598 454.453L253.914 482.596L238.841 494.612L238.069 495.238C228.058 503.358 215.969 508.504 203.177 510.091C194.056 511.222 184.815 510.958 175.772 509.309L161.664 506.735L179.446 485.424C202.471 457.83 237.529 443.23 273.334 446.324L251.567 461.839Z" fill="#1DABC1"></path><path d="M185.807 419.183L191.191 407.93C181.585 403.045 170.797 400.968 160.065 401.938L152.178 402.651C138.379 405.024 125.231 410.263 113.581 418.029L112.5 418.75C93.4444 431.554 77.3311 448.266 65.2301 467.776L64.4766 468.99C110.254 483.986 160.25 464.558 183.89 422.586L185.807 419.183Z" fill="#44B04D"></path><path d="M377.706 183.938L389.021 187.336L390.39 182.552C392.465 175.296 393.25 167.731 392.709 160.203C392.033 150.813 389.631 141.629 385.622 133.111L382.046 125.511C379.322 119.722 375.745 114.375 371.436 109.646L366.049 103.735C356.598 93.3636 344.828 85.3746 331.7 80.4197L311.563 72.8191C305.183 120.654 332.568 166.868 377.706 183.938Z" fill="#44B04D"></path><path d="M429.766 153.839L431.128 161.907L434.78 160.877C440.526 159.255 445.992 156.77 450.993 153.507C457.266 149.413 462.842 144.339 467.508 138.479L471.209 133.83C474.443 129.769 477.098 125.28 479.101 120.49L480.861 116.279C485.112 106.109 486.815 95.0552 485.821 84.0777L484.636 70.9861L477.556 74.0002C445.998 87.4347 426.698 119.679 429.766 153.839Z" fill="#1DABC1"></path><path d="M571.202 223.45L568.945 231.315L572.683 231.963C578.566 232.982 584.57 233.103 590.489 232.32C597.915 231.338 605.136 229.171 611.876 225.902L617.223 223.309C621.893 221.043 626.228 218.142 630.103 214.687L633.51 211.65C641.737 204.315 648.048 195.081 651.895 184.752L656.482 172.433L648.794 172.092C614.53 170.575 583.193 191.316 571.202 223.45Z" fill="#44B04D"></path><path d="M191.167 230.917L199.387 229.713L199.296 228.343C198.905 222.494 197.4 216.773 194.861 211.488C193.309 208.255 191.165 205.341 188.541 202.896L182.39 197.165C176.789 192.303 169.966 189.066 162.657 187.804L155.361 186.543C149.124 185.466 142.79 185.061 136.467 185.336L121.999 185.965C128.772 214.555 155.433 233.894 184.713 231.454L191.167 230.917Z" fill="#44B04D"></path><path d="M224.798 311.513C223.053 311.509 222.163 311.466 221.005 310.552L219.186 309.114L218.99 310.987C218.988 310.997 218.85 311.922 217.9 312.294C216.898 312.686 215.231 312.393 213.078 311.447C210.942 310.509 209.602 309.487 209.202 308.491C208.813 307.524 209.4 306.802 209.419 306.781L210.906 305.096L208.198 304.986C205.136 304.86 204.006 304.071 202.295 302.877C201.207 302.116 199.974 301.255 198.082 300.424C192.579 298.006 188.526 299.2 185.388 304.169L174.326 299.662L175.439 297.13L173.063 296.087L171.922 298.683L170.721 298.193L171.058 297.424L163.931 294.293L160.665 301.729L167.792 304.86L168.13 304.091L171.651 305.753L170.539 308.285L172.914 309.328L173.998 306.86L182.453 310.85C180.916 316.523 182.779 320.315 188.282 322.732C190.174 323.564 191.642 323.889 192.939 324.177C194.975 324.629 196.32 324.927 198.484 327.098L200.397 329.017L200.633 326.782C200.634 326.772 200.772 325.846 201.723 325.474C202.725 325.081 204.393 325.374 206.545 326.32C208.681 327.258 210.021 328.28 210.422 329.276C210.811 330.243 210.222 330.965 210.205 330.986L208.958 332.397L211.247 332.764C212.704 332.998 213.337 333.625 214.521 334.908C215.607 336.084 216.96 337.548 219.537 338.68C226.73 341.84 232.097 339.12 235.944 330.363C239.791 321.606 238.164 315.814 230.97 312.654C228.394 311.522 226.399 311.516 224.798 311.513ZM163.857 300.914L165.49 297.196L167.866 298.239L166.233 301.958L163.857 300.914ZM169.904 300.053L197.548 311.317L195.943 314.97L168.947 302.231L169.904 300.053ZM220.354 336.821C218.395 335.961 217.377 334.858 216.393 333.792C215.466 332.787 214.513 331.755 212.965 331.131C213.112 330.526 213.12 329.785 212.806 328.976C212.147 327.278 210.315 325.758 207.362 324.461C204.409 323.163 202.05 322.842 200.353 323.505C199.672 323.772 199.182 324.173 198.837 324.604C196.711 322.909 194.971 322.522 193.147 322.118C191.941 321.851 190.694 321.574 189.099 320.873C186.03 319.526 183.429 317.496 184.823 311.968L197.473 317.938L197.896 316.976L212.15 323.237L212.967 321.378L198.713 315.117L199.529 313.258L219.611 322.079C219.541 322.412 219.451 322.746 219.314 323.058C219.177 323.37 218.992 323.662 218.794 323.938L215.342 322.422L214.526 324.281L217.309 325.504C217.017 325.743 216.806 325.89 216.8 325.894L216.156 326.328L217.795 329.38L218.81 329.29C220.454 329.141 225.237 328.986 227.592 330.021L232.195 332.043C228.198 339.028 223.823 338.345 220.354 336.821ZM233.133 330.237L228.409 328.162C225.681 326.964 221.408 326.988 219.305 327.089C220.033 326.476 221.113 325.414 221.69 324.102C222.267 322.789 222.318 321.275 222.277 320.324C223.625 321.941 226.498 325.105 229.225 326.303L233.949 328.378C233.823 328.691 233.712 328.992 233.568 329.32C233.425 329.647 233.278 329.933 233.133 330.237ZM234.645 326.466L230.042 324.444C227.692 323.412 224.566 319.783 223.561 318.472L222.94 317.665L219.586 318.524L219.702 319.289C219.703 319.296 219.737 319.551 219.758 319.928L200.345 311.401L200.768 310.438L187.813 305.16C190.942 300.393 194.197 300.935 197.265 302.283C198.86 302.984 199.908 303.715 200.921 304.422C202.452 305.491 203.913 306.511 206.601 306.932C206.518 307.475 206.554 308.11 206.817 308.791C207.477 310.489 209.309 312.009 212.262 313.306C215.215 314.604 217.573 314.924 219.27 314.262C220.078 313.946 220.618 313.438 220.965 312.92C222.471 313.639 223.874 313.642 225.243 313.645C226.694 313.648 228.195 313.652 230.153 314.513C233.623 316.037 237.085 318.798 234.645 326.466Z" fill="#040404"></path><path d="M600.781 352.097V319.609C600.781 319.299 600.658 319.001 600.438 318.781C600.218 318.561 599.92 318.438 599.609 318.438H550.391C550.08 318.438 549.782 318.561 549.562 318.781C549.342 319.001 549.219 319.299 549.219 319.609V352.097L542.355 363.538C542.248 363.715 542.19 363.918 542.188 364.126C542.185 364.333 542.237 364.537 542.34 364.718C542.442 364.898 542.59 365.048 542.769 365.153C542.948 365.257 543.152 365.312 543.359 365.312H606.641C606.848 365.312 607.052 365.257 607.231 365.153C607.41 365.048 607.558 364.898 607.66 364.718C607.763 364.537 607.815 364.333 607.812 364.126C607.81 363.918 607.752 363.715 607.645 363.538L600.781 352.097ZM551.562 320.781H598.438V351.25H551.562V320.781ZM545.429 362.969L551.054 353.594H598.946L604.571 362.969H545.429Z" fill="black"></path><path d="M574.168 322.293C573.954 322.518 573.832 322.815 573.828 323.125C573.83 323.436 573.952 323.734 574.168 323.957C574.333 324.122 574.542 324.234 574.77 324.279C574.999 324.324 575.235 324.301 575.45 324.212C575.665 324.123 575.849 323.972 575.978 323.779C576.107 323.585 576.176 323.358 576.176 323.125C576.176 322.892 576.107 322.665 575.978 322.471C575.849 322.278 575.665 322.127 575.45 322.038C575.235 321.949 574.999 321.926 574.77 321.971C574.542 322.016 574.333 322.128 574.168 322.293ZM561.523 355.938C561.523 355.627 561.4 355.329 561.18 355.109C560.96 354.889 560.662 354.766 560.352 354.766H556.836C556.525 354.766 556.227 354.889 556.007 355.109C555.787 355.329 555.664 355.627 555.664 355.938C555.664 356.248 555.787 356.546 556.007 356.766C556.227 356.986 556.525 357.109 556.836 357.109H560.352C560.662 357.109 560.96 356.986 561.18 356.766C561.4 356.546 561.523 356.248 561.523 355.938ZM569.727 355.938C569.727 355.627 569.603 355.329 569.383 355.109C569.164 354.889 568.865 354.766 568.555 354.766H565.039C564.728 354.766 564.43 354.889 564.21 355.109C563.991 355.329 563.867 355.627 563.867 355.938C563.867 356.248 563.991 356.546 564.21 356.766C564.43 356.986 564.728 357.109 565.039 357.109H568.555C568.865 357.109 569.164 356.986 569.383 356.766C569.603 356.546 569.727 356.248 569.727 355.938ZM573.242 357.109H576.758C577.069 357.109 577.367 356.986 577.586 356.766C577.806 356.546 577.93 356.248 577.93 355.938C577.93 355.627 577.806 355.329 577.586 355.109C577.367 354.889 577.069 354.766 576.758 354.766H573.242C572.931 354.766 572.633 354.889 572.414 355.109C572.194 355.329 572.07 355.627 572.07 355.938C572.07 356.248 572.194 356.546 572.414 356.766C572.633 356.986 572.931 357.109 573.242 357.109ZM586.133 355.938C586.133 355.627 586.009 355.329 585.79 355.109C585.57 354.889 585.272 354.766 584.961 354.766H581.445C581.135 354.766 580.836 354.889 580.617 355.109C580.397 355.329 580.273 355.627 580.273 355.938C580.273 356.248 580.397 356.546 580.617 356.766C580.836 356.986 581.135 357.109 581.445 357.109H584.961C585.272 357.109 585.57 356.986 585.79 356.766C586.009 356.546 586.133 356.248 586.133 355.938ZM594.336 355.938C594.336 355.627 594.213 355.329 593.993 355.109C593.773 354.889 593.475 354.766 593.164 354.766H589.648C589.338 354.766 589.04 354.889 588.82 355.109C588.6 355.329 588.477 355.627 588.477 355.938C588.477 356.248 588.6 356.546 588.82 356.766C589.04 356.986 589.338 357.109 589.648 357.109H593.164C593.475 357.109 593.773 356.986 593.993 356.766C594.213 356.546 594.336 356.248 594.336 355.938ZM555.078 359.453H551.562C551.252 359.453 550.954 359.577 550.734 359.796C550.514 360.016 550.391 360.314 550.391 360.625C550.391 360.936 550.514 361.234 550.734 361.454C550.954 361.673 551.252 361.797 551.562 361.797H555.078C555.389 361.797 555.687 361.673 555.907 361.454C556.127 361.234 556.25 360.936 556.25 360.625C556.25 360.314 556.127 360.016 555.907 359.796C555.687 359.577 555.389 359.453 555.078 359.453ZM563.281 359.453H559.766C559.455 359.453 559.157 359.577 558.937 359.796C558.717 360.016 558.594 360.314 558.594 360.625C558.594 360.936 558.717 361.234 558.937 361.454C559.157 361.673 559.455 361.797 559.766 361.797H563.281C563.592 361.797 563.89 361.673 564.11 361.454C564.33 361.234 564.453 360.936 564.453 360.625C564.453 360.314 564.33 360.016 564.11 359.796C563.89 359.577 563.592 359.453 563.281 359.453ZM582.031 359.453H567.969C567.658 359.453 567.36 359.577 567.14 359.796C566.92 360.016 566.797 360.314 566.797 360.625C566.797 360.936 566.92 361.234 567.14 361.454C567.36 361.673 567.658 361.797 567.969 361.797H582.031C582.342 361.797 582.64 361.673 582.86 361.454C583.08 361.234 583.203 360.936 583.203 360.625C583.203 360.314 583.08 360.016 582.86 359.796C582.64 359.577 582.342 359.453 582.031 359.453ZM590.234 359.453H586.719C586.408 359.453 586.11 359.577 585.89 359.796C585.67 360.016 585.547 360.314 585.547 360.625C585.547 360.936 585.67 361.234 585.89 361.454C586.11 361.673 586.408 361.797 586.719 361.797H590.234C590.545 361.797 590.843 361.673 591.063 361.454C591.283 361.234 591.406 360.936 591.406 360.625C591.406 360.314 591.283 360.016 591.063 359.796C590.843 359.577 590.545 359.453 590.234 359.453ZM594.922 359.453C594.611 359.453 594.313 359.577 594.093 359.796C593.873 360.016 593.75 360.314 593.75 360.625C593.75 360.936 593.873 361.234 594.093 361.454C594.313 361.673 594.611 361.797 594.922 361.797H598.438C598.748 361.797 599.046 361.673 599.266 361.454C599.486 361.234 599.609 360.936 599.609 360.625C599.609 360.314 599.486 360.016 599.266 359.796C599.046 359.577 598.748 359.453 598.438 359.453H594.922Z" fill="black"></path><path d="M549.8 156.42L543.83 150.45C543.23 149.85 542.3 149.85 541.7 150.45L537.62 154.5L535.91 152.79C535.31 152.19 534.38 152.19 533.78 152.79L509.54 177.09C508.01 178.62 508.01 181.11 509.51 182.64L505.7 186.45C505.1 187.05 505.1 187.98 505.7 188.58L511.67 194.55C511.97 194.85 512.36 195 512.72 195C513.08 195 513.5 194.85 513.77 194.55L517.58 190.74C518.33 191.46 519.29 191.88 520.34 191.88C521.39 191.88 522.38 191.46 523.13 190.74L536.99 176.88C537.41 176.94 537.83 177 538.25 177C539.6 177 540.83 176.55 541.82 175.77C543.41 179.31 544.25 183.15 544.25 187.05C544.25 201.36 533.48 213 520.25 213C514.55 213 509.24 210.87 504.95 207H517.25V204H487.25V207H500.72C503.9 210.57 507.74 213.18 511.97 214.62L504.17 222.42C503.75 222.84 503.6 223.5 503.84 224.04C504.11 224.64 504.65 225 505.25 225H535.25C535.85 225 536.39 224.64 536.63 224.07C536.87 223.5 536.72 222.87 536.3 222.45L528.47 214.62C539.33 210.87 547.25 199.95 547.25 187.05C547.25 182.16 546.05 177.42 543.86 173.13C544.1 172.47 544.25 171.75 544.25 171C544.25 170.58 544.19 170.16 544.13 169.77L547.46 166.44C548.06 165.84 548.06 164.91 547.46 164.31L545.75 162.63L549.83 158.55C550.4 157.95 550.4 157.02 549.8 156.42ZM525.62 216L531.62 222H508.88L514.88 216H525.62ZM512.72 191.37L508.85 187.5L511.61 184.74L515.48 188.61L512.72 191.37ZM538.25 174C536.6 174 535.25 172.65 535.25 171C535.25 169.35 536.6 168 538.25 168C539.9 168 541.25 169.35 541.25 171C541.25 172.65 539.9 174 538.25 174ZM542.66 166.98C541.58 165.78 539.99 165 538.25 165C534.95 165 532.25 167.7 532.25 171C532.25 172.74 533.03 174.33 534.23 175.41L521.03 188.61C520.67 188.97 520.07 188.97 519.71 188.61L511.64 180.54C511.28 180.18 511.28 179.58 511.64 179.22L534.86 156L544.25 165.39L542.66 166.98ZM543.62 160.5L539.75 156.63L542.75 153.63L546.62 157.5L543.62 160.5Z" fill="#131414"></path><path d="M240.651 494.012C254.031 480.273 244.434 456.991 225 456.875C219.201 456.883 213.641 459.19 209.541 463.291C205.44 467.391 203.133 472.951 203.125 478.75C203.264 498.463 227.071 507.914 240.651 494.012ZM239.873 492.565C236.236 490.446 232.766 488.052 229.494 485.405C234.267 479.919 241.602 478.592 245.301 478.287C245.43 483.573 243.481 488.699 239.873 492.565ZM220.196 478.861C222.427 481.266 224.806 483.53 227.317 485.64C224.742 489.175 223.384 493.655 223.272 498.984C218.912 498.614 214.789 496.84 211.522 493.929C213.291 488.339 216.251 483.199 220.196 478.861ZM221.255 477.706C226.563 472.282 232.858 467.922 239.802 464.859C242.865 468.11 244.766 472.282 245.211 476.727C241.293 477.045 233.44 478.461 228.288 484.413C225.806 482.326 223.457 480.086 221.255 477.706ZM238.605 463.681C231.731 466.799 225.492 471.161 220.202 476.547C218.293 474.412 216.513 472.164 214.873 469.816C219.916 465.594 221.067 461.063 221.303 458.78C224.37 458.218 227.525 458.367 230.525 459.216C233.525 460.066 236.289 461.594 238.605 463.681ZM210.041 465.025C210.884 466.553 211.791 468.045 212.759 469.496C210.486 471.137 208.008 472.473 205.387 473.47C206.238 470.322 207.834 467.425 210.041 465.025ZM211.191 463.871C213.597 461.633 216.511 460.012 219.681 459.148C219.355 461.292 218.152 464.985 213.988 468.521C212.986 467.014 212.053 465.463 211.191 463.871ZM204.688 478.75C204.689 477.589 204.79 476.431 204.989 475.287C208.072 474.201 210.985 472.686 213.645 470.785C215.335 473.198 217.169 475.507 219.137 477.7C215.173 482.038 212.155 487.153 210.273 492.72C206.685 488.954 204.685 483.951 204.688 478.75ZM224.831 499.059C224.93 494.076 226.172 489.904 228.527 486.633C231.75 489.237 235.161 491.599 238.732 493.702C234.95 497.192 229.978 499.108 224.831 499.059Z" fill="#231F20"></path><path d="M86.6246 473.66L79.0872 459.943C78.8873 459.579 78.8809 459.129 79.0693 458.69C79.2577 458.252 79.6255 457.862 80.0919 457.605L160.98 413.156C161.447 412.9 161.973 412.798 162.444 412.874C162.916 412.95 163.293 413.198 163.493 413.561L171.03 427.278C171.23 427.642 171.236 428.092 171.048 428.531C170.859 428.969 170.492 429.36 170.025 429.616L89.1368 474.065C88.1696 474.596 87.0392 474.414 86.6246 473.66ZM83.3578 459.382L89.3877 470.355L166.759 427.839L160.729 416.866L83.3578 459.382Z" fill="black"></path><path d="M153.194 428.15L150.179 422.663C149.979 422.3 149.972 421.849 150.161 421.41C150.349 420.972 150.717 420.582 151.183 420.325C151.65 420.069 152.176 419.968 152.648 420.044C153.119 420.12 153.496 420.367 153.696 420.731L156.711 426.217C156.91 426.581 156.917 427.032 156.728 427.47C156.54 427.909 156.172 428.299 155.706 428.555C155.239 428.812 154.713 428.913 154.242 428.837C153.771 428.761 153.394 428.514 153.194 428.15ZM144.652 429.272L143.145 426.528C142.945 426.165 142.939 425.714 143.127 425.276C143.315 424.837 143.683 424.447 144.15 424.191C144.616 423.934 145.143 423.833 145.614 423.909C146.085 423.985 146.462 424.232 146.662 424.596L148.169 427.339C148.369 427.703 148.376 428.154 148.187 428.592C147.999 429.031 147.631 429.421 147.165 429.677C146.698 429.933 146.172 430.035 145.7 429.959C145.229 429.883 144.852 429.636 144.652 429.272ZM139.126 435.88L136.111 430.394C135.911 430.03 135.905 429.579 136.093 429.141C136.282 428.702 136.649 428.312 137.116 428.056C137.582 427.799 138.109 427.698 138.58 427.774C139.051 427.85 139.428 428.097 139.628 428.461L142.643 433.948C142.843 434.311 142.849 434.762 142.661 435.201C142.473 435.639 142.105 436.029 141.638 436.286C141.172 436.542 140.645 436.643 140.174 436.567C139.703 436.491 139.326 436.244 139.126 435.88ZM130.585 437.002L129.077 434.259C128.877 433.895 128.871 433.444 129.059 433.006C129.248 432.567 129.616 432.177 130.082 431.921C130.548 431.665 131.075 431.563 131.546 431.639C132.017 431.715 132.394 431.962 132.594 432.326L134.102 435.069C134.302 435.433 134.308 435.884 134.12 436.322C133.931 436.761 133.563 437.151 133.097 437.407C132.631 437.664 132.104 437.765 131.633 437.689C131.162 437.613 130.785 437.366 130.585 437.002ZM125.059 443.611L122.044 438.124C121.844 437.76 121.837 437.309 122.026 436.871C122.214 436.433 122.582 436.042 123.048 435.786C123.515 435.53 124.041 435.428 124.512 435.504C124.984 435.58 125.361 435.828 125.56 436.191L128.575 441.678C128.775 442.042 128.782 442.492 128.593 442.931C128.405 443.369 128.037 443.76 127.571 444.016C127.104 444.272 126.578 444.373 126.107 444.297C125.635 444.221 125.258 443.974 125.059 443.611ZM116.517 444.732L115.01 441.989C114.81 441.625 114.803 441.175 114.992 440.736C115.18 440.298 115.548 439.907 116.015 439.651C116.481 439.395 117.008 439.294 117.479 439.37C117.95 439.446 118.327 439.693 118.527 440.056L120.034 442.8C120.234 443.164 120.241 443.614 120.052 444.053C119.864 444.491 119.496 444.881 119.029 445.138C118.563 445.394 118.036 445.495 117.565 445.419C117.094 445.343 116.717 445.096 116.517 444.732ZM110.991 451.341L107.976 445.854C107.776 445.49 107.77 445.04 107.958 444.601C108.147 444.163 108.514 443.773 108.981 443.516C109.447 443.26 109.974 443.159 110.445 443.235C110.916 443.311 111.293 443.558 111.493 443.922L114.508 449.408C114.708 449.772 114.714 450.223 114.526 450.661C114.337 451.1 113.97 451.49 113.503 451.746C113.037 452.002 112.51 452.104 112.039 452.028C111.568 451.952 111.191 451.705 110.991 451.341ZM102.45 452.463L100.942 449.719C100.742 449.356 100.736 448.905 100.924 448.466C101.113 448.028 101.481 447.638 101.947 447.381C102.413 447.125 102.94 447.024 103.411 447.1C103.882 447.176 104.259 447.423 104.459 447.787L105.967 450.53C106.167 450.894 106.173 451.345 105.985 451.783C105.796 452.221 105.428 452.612 104.962 452.868C104.496 453.124 103.969 453.226 103.498 453.15C103.027 453.074 102.65 452.826 102.45 452.463ZM96.9235 459.071L93.9085 453.585C93.7086 453.221 93.7021 452.77 93.8906 452.332C94.079 451.893 94.4468 451.503 94.9132 451.247C95.3796 450.99 95.9063 450.889 96.3774 450.965C96.8485 451.041 97.2255 451.288 97.4254 451.652L100.44 457.139C100.64 457.502 100.647 457.953 100.458 458.391C100.27 458.83 99.902 459.22 99.4356 459.476C98.9693 459.733 98.4426 459.834 97.9715 459.758C97.5003 459.682 97.1234 459.435 96.9235 459.071ZM88.3822 460.193L86.8747 457.45C86.6748 457.086 86.6684 456.635 86.8568 456.197C87.0452 455.758 87.4131 455.368 87.8794 455.112C88.3458 454.855 88.8725 454.754 89.3436 454.83C89.8147 454.906 90.1917 455.153 90.3916 455.517L91.8991 458.26C92.099 458.624 92.1055 459.075 91.917 459.513C91.7286 459.952 91.3608 460.342 90.8944 460.598C90.428 460.855 89.9013 460.956 89.4302 460.88C88.9591 460.804 88.5821 460.557 88.3822 460.193Z" fill="black"></path><path d="M613.702 223.522L632.06 184.867C633.005 182.96 632.696 180.734 631.309 179.445C629.923 178.155 627.68 178.009 625.847 179.091L588.63 200.214C587.391 200.879 586.48 201.97 585.962 203.306C585.445 204.641 585.446 205.975 585.976 207.073C586.183 207.629 586.511 208.055 586.899 208.416C587.398 208.88 587.963 209.163 588.648 209.315C589.903 209.634 591.238 209.422 592.421 208.705L602.111 203.177L609.766 210.293L604.952 220.476C604.062 222.434 604.316 224.608 605.703 225.898C606.091 226.259 606.54 226.555 607.109 226.721C608.304 227.104 609.634 227.008 610.868 226.46C612.046 225.859 613.129 224.806 613.702 223.522ZM610.297 224.96C609.471 225.403 608.605 225.446 607.808 225.19C607.47 224.997 607.188 224.856 606.911 224.598C605.968 223.721 605.8 222.233 606.374 220.949L611.438 210.273C611.624 209.962 611.584 209.561 611.362 209.354L602.931 201.516C602.709 201.31 602.306 201.298 602.009 201.507L591.73 207.335C590.904 207.779 590.032 207.937 589.236 207.682C588.44 207.426 587.769 206.924 587.456 206.148C587.143 205.372 587.122 204.505 587.504 203.649C587.887 202.793 588.496 202.027 589.322 201.583L626.539 180.461C627.722 179.744 629.158 179.868 630.101 180.744C631.044 181.621 631.212 183.109 630.638 184.393L612.281 223.049C611.843 223.853 611.178 224.568 610.297 224.96Z" fill="black"></path><path d="M619.667 192.969C619.853 192.658 619.812 192.256 619.59 192.05C619.368 191.844 618.965 191.832 618.668 192.041L610.102 196.917C609.865 197.061 609.684 197.255 609.614 197.553C609.543 197.852 609.649 198.071 609.816 198.226L614.142 202.248C614.309 202.403 614.596 202.428 614.828 202.401C615.12 202.309 615.301 202.114 615.427 201.868L619.667 192.969ZM611.8 197.648L617.234 194.584L614.574 200.227L611.8 197.648Z" fill="black"></path><path d="M268.014 162.508C264.614 162.603 261.189 163.608 258.04 165.613C247.966 172.033 244.507 186.291 250.324 197.411C255.016 206.386 264.333 210.591 273.049 208.511L276.721 215.521C276.872 215.806 277.119 216.014 277.408 216.099C277.697 216.184 278.005 216.14 278.265 215.975L278.636 215.741L288.647 234.885C289.279 236.085 290.315 236.961 291.53 237.32C292.746 237.68 294.04 237.495 295.132 236.805C296.22 236.106 297.013 234.961 297.338 233.62C297.663 232.279 297.495 230.85 296.869 229.645L286.854 210.501L287.225 210.266C287.355 210.184 287.468 210.075 287.559 209.944C287.649 209.814 287.716 209.666 287.755 209.507C287.794 209.349 287.804 209.183 287.784 209.02C287.765 208.857 287.717 208.7 287.643 208.558L284.016 201.628C290.159 194.341 291.591 183.198 286.849 174.133C284.95 170.505 282.197 167.509 278.882 165.463C275.566 163.417 271.812 162.396 268.014 162.508ZM268.082 164.993C271.472 164.893 274.823 165.805 277.781 167.635C280.739 169.464 283.193 172.141 284.884 175.383C286.122 177.745 286.926 180.354 287.25 183.059C287.574 185.764 287.411 188.513 286.771 191.148C286.131 193.784 285.027 196.255 283.52 198.419C282.014 200.584 280.136 202.4 277.993 203.763C275.853 205.129 273.49 206.017 271.039 206.374C268.587 206.731 266.096 206.552 263.708 205.845C261.32 205.139 259.082 203.92 257.121 202.258C255.161 200.596 253.517 198.524 252.285 196.161C251.046 193.798 250.242 191.19 249.918 188.485C249.594 185.78 249.757 183.031 250.397 180.396C251.037 177.76 252.142 175.289 253.648 173.125C255.154 170.96 257.033 169.144 259.176 167.781C261.887 166.045 264.949 165.087 268.082 164.993ZM268.143 167.688C265.415 167.763 262.748 168.593 260.386 170.101C252.557 175.091 249.868 186.181 254.388 194.823C256.564 198.974 260.145 202.002 264.344 203.242C268.543 204.483 273.017 203.834 276.782 201.438C280.545 199.034 283.29 195.083 284.415 190.45C285.541 185.818 284.954 180.882 282.785 176.726C281.308 173.905 279.168 171.577 276.591 169.986C274.014 168.395 271.095 167.602 268.143 167.688ZM268.211 170.173C270.756 170.098 273.272 170.784 275.493 172.158C277.713 173.531 279.555 175.542 280.824 177.976C281.754 179.749 282.358 181.706 282.601 183.737C282.844 185.767 282.722 187.831 282.241 189.809C281.76 191.787 280.931 193.642 279.799 195.266C278.668 196.891 277.258 198.253 275.649 199.276C274.043 200.302 272.269 200.969 270.429 201.238C268.589 201.507 266.718 201.373 264.925 200.843C263.132 200.314 261.452 199.399 259.98 198.151C258.508 196.903 257.274 195.348 256.349 193.573C255.419 191.8 254.815 189.842 254.571 187.812C254.328 185.781 254.449 183.717 254.93 181.739C255.41 179.76 256.239 177.905 257.37 176.28C258.501 174.655 259.911 173.292 261.52 172.268C263.556 170.965 265.858 170.244 268.211 170.173ZM282.325 203.406L285.111 208.731L278.115 213.186L275.311 207.826C276.637 207.333 277.916 206.697 279.128 205.926C280.284 205.188 281.345 204.336 282.325 203.406ZM284.893 211.751L294.908 230.895C295.075 231.206 295.183 231.549 295.228 231.907C295.273 232.264 295.252 232.627 295.168 232.976C295.083 233.324 294.937 233.65 294.736 233.935C294.536 234.22 294.286 234.458 294.001 234.635C293.72 234.82 293.408 234.941 293.085 234.99C292.761 235.04 292.431 235.017 292.115 234.924C291.799 234.831 291.504 234.669 291.245 234.448C290.987 234.226 290.772 233.95 290.612 233.635L280.597 214.491L284.893 211.751Z" fill="black"></path><path d="M567.221 502.589C567.997 502.979 568.646 503.569 569.095 504.293C569.544 505.018 569.776 505.848 569.765 506.691C569.752 507.165 569.659 507.634 569.491 508.08C567.944 512.366 565.102 516.106 561.332 518.819C557.628 521.488 553.101 522.879 548.475 522.77C545.56 522.681 542.695 522.009 540.061 520.796C537.427 519.583 535.082 517.856 533.175 515.724C529.109 511.217 526.957 505.396 527.15 499.43C527.309 493.052 529.174 488.037 532.439 484.633C535.703 481.228 540.406 479.442 546.491 479.593C547.824 479.579 549.142 479.867 550.339 480.435C551.115 480.841 551.792 481.402 552.325 482.081C553.312 483.458 553.976 485.026 554.269 486.675C554.77 489.171 555.026 491.707 555.033 494.248C555.05 495.916 555.727 497.516 556.926 498.721L558.05 497.697C557.114 496.761 556.59 495.511 556.589 494.212C556.463 488.685 555.794 484.78 554.205 482.113C553.479 480.843 552.39 479.8 551.068 479.109C549.663 478.45 548.119 478.115 546.558 478.131C540.133 477.972 534.908 479.917 531.334 483.642C527.759 487.368 525.768 492.76 525.604 499.391C525.405 505.738 527.7 511.927 532.029 516.718C534.075 519.002 536.591 520.852 539.415 522.151C542.24 523.449 545.313 524.168 548.438 524.262C553.408 524.377 558.271 522.884 562.254 520.022C566.275 517.135 569.304 513.148 570.949 508.579C571.173 507.986 571.296 507.361 571.312 506.729C571.33 505.608 571.025 504.504 570.43 503.54C569.835 502.576 568.973 501.79 567.942 501.271L567.221 502.589Z" fill="black"></path><path d="M548.384 486.972C548.373 487.408 548.23 487.832 547.972 488.189C547.714 488.545 547.354 488.819 546.936 488.976C546.518 489.133 546.061 489.165 545.624 489.069C545.187 488.973 544.789 488.753 544.48 488.437C544.171 488.12 543.965 487.721 543.888 487.291C543.812 486.861 543.867 486.418 544.049 486.019C544.23 485.62 544.529 485.283 544.907 485.049C545.286 484.816 545.727 484.698 546.175 484.709C546.775 484.724 547.345 484.97 547.76 485.395C548.174 485.819 548.399 486.387 548.384 486.972L549.894 487.009C549.912 486.282 549.708 485.565 549.308 484.95C548.909 484.335 548.331 483.849 547.648 483.553C546.966 483.258 546.209 483.166 545.473 483.29C544.738 483.414 544.056 483.747 543.516 484.249C542.975 484.75 542.6 485.396 542.436 486.106C542.273 486.816 542.329 487.558 542.598 488.237C542.867 488.916 543.337 489.502 543.947 489.922C544.558 490.342 545.282 490.576 546.028 490.594C547.029 490.619 547.999 490.255 548.724 489.583C549.449 488.911 549.87 487.985 549.894 487.009L548.384 486.972ZM539.227 493.215C539.216 493.651 539.072 494.075 538.815 494.432C538.557 494.788 538.196 495.062 537.778 495.219C537.36 495.376 536.904 495.408 536.467 495.312C536.03 495.216 535.631 494.996 535.322 494.68C535.013 494.363 534.807 493.964 534.731 493.534C534.654 493.104 534.71 492.661 534.891 492.262C535.073 491.863 535.371 491.526 535.75 491.292C536.128 491.059 536.569 490.941 537.017 490.952C537.618 490.967 538.188 491.214 538.602 491.638C539.016 492.062 539.241 492.63 539.227 493.215L540.736 493.252C540.754 492.525 540.551 491.808 540.151 491.193C539.751 490.578 539.174 490.092 538.491 489.796C537.808 489.501 537.051 489.409 536.316 489.533C535.58 489.657 534.899 489.99 534.358 490.491C533.818 490.993 533.442 491.639 533.279 492.349C533.115 493.059 533.172 493.801 533.441 494.48C533.71 495.159 534.179 495.746 534.79 496.165C535.4 496.585 536.125 496.818 536.871 496.837C537.367 496.849 537.86 496.766 538.322 496.593C538.785 496.419 539.207 496.159 539.566 495.826C539.925 495.493 540.213 495.095 540.414 494.653C540.615 494.211 540.724 493.736 540.736 493.252L539.227 493.215ZM537.28 503.494C537.269 503.931 537.125 504.354 536.867 504.711C536.61 505.068 536.249 505.342 535.831 505.499C535.413 505.655 534.957 505.688 534.52 505.592C534.083 505.496 533.684 505.275 533.375 504.959C533.066 504.642 532.86 504.244 532.784 503.814C532.707 503.383 532.763 502.941 532.944 502.542C533.126 502.143 533.424 501.805 533.803 501.572C534.181 501.339 534.622 501.22 535.07 501.231C535.671 501.246 536.241 501.493 536.655 501.917C537.069 502.342 537.294 502.909 537.28 503.494L538.789 503.532C538.807 502.804 538.603 502.088 538.204 501.472C537.804 500.857 537.226 500.371 536.544 500.076C535.861 499.78 535.104 499.688 534.369 499.812C533.633 499.936 532.952 500.27 532.411 500.771C531.871 501.272 531.495 501.919 531.332 502.629C531.168 503.338 531.225 504.08 531.494 504.759C531.763 505.438 532.232 506.025 532.843 506.444C533.453 506.864 534.177 507.098 534.924 507.116C535.925 507.141 536.894 506.778 537.619 506.105C538.344 505.433 538.765 504.507 538.789 503.532L537.28 503.494ZM542.155 512.743C542.144 513.18 542.001 513.603 541.743 513.96C541.485 514.317 541.125 514.591 540.707 514.747C540.289 514.904 539.833 514.937 539.395 514.841C538.958 514.745 538.56 514.524 538.251 514.208C537.942 513.891 537.736 513.493 537.659 513.062C537.583 512.632 537.639 512.189 537.82 511.79C538.001 511.391 538.3 511.054 538.679 510.821C539.057 510.587 539.498 510.469 539.946 510.48C540.546 510.495 541.116 510.742 541.531 511.166C541.945 511.591 542.17 512.158 542.155 512.743L543.665 512.781C543.683 512.053 543.479 511.337 543.08 510.721C542.68 510.106 542.102 509.62 541.42 509.325C540.737 509.029 539.98 508.937 539.244 509.061C538.509 509.185 537.828 509.518 537.287 510.02C536.746 510.521 536.371 511.168 536.207 511.878C536.044 512.587 536.1 513.329 536.369 514.008C536.638 514.687 537.108 515.274 537.718 515.693C538.329 516.113 539.053 516.347 539.8 516.365C540.295 516.378 540.788 516.295 541.251 516.121C541.713 515.948 542.136 515.687 542.495 515.354C542.854 515.021 543.142 514.623 543.343 514.181C543.543 513.74 543.653 513.264 543.665 512.781L542.155 512.743ZM554.518 508.825L554.972 509.403C555.958 508.709 556.809 507.847 557.482 506.86C558.023 506.044 558.326 505.1 558.358 504.128C558.367 503.536 558.285 502.946 558.114 502.378C557.982 501.946 557.922 501.498 557.936 501.048C557.965 499.903 558.45 498.814 559.288 498.012C559.685 497.618 560.16 497.306 560.685 497.095C561.209 496.885 561.772 496.779 562.339 496.785C562.714 496.794 563.086 496.852 563.445 496.96L563.827 497.087C564.756 497.438 565.554 498.056 566.116 498.858C566.677 499.661 566.975 500.611 566.97 501.582C566.952 502.138 566.828 502.687 566.605 503.199C565.831 505.116 564.351 506.683 562.456 507.594C560.976 508.258 559.357 508.575 557.728 508.522C557.005 508.501 556.284 508.427 555.573 508.299C555.31 508.248 555.1 508.206 554.965 508.166L554.806 508.162L554.592 508.893L554.37 509.624C555.469 509.906 556.598 510.063 557.734 510.09C559.616 510.162 561.488 509.799 563.198 509.033C565.418 507.966 567.155 506.138 568.076 503.898C568.383 503.204 568.551 502.459 568.569 501.702C568.583 500.427 568.197 499.177 567.464 498.12C566.73 497.063 565.684 496.248 564.464 495.785L563.969 495.618C563.48 495.477 562.974 495.397 562.465 495.382C561.691 495.37 560.923 495.509 560.206 495.792C559.489 496.075 558.838 496.497 558.292 497.03C557.514 497.777 556.958 498.715 556.684 499.745C556.41 500.775 556.427 501.859 556.735 502.881C556.864 503.302 556.927 503.741 556.922 504.181C556.899 504.889 556.676 505.576 556.276 506.167C555.697 507.003 554.97 507.733 554.13 508.322C554.018 508.406 553.931 508.518 553.882 508.647C553.832 508.776 553.82 508.916 553.848 509.051C553.872 509.184 553.934 509.308 554.026 509.409C554.118 509.51 554.237 509.584 554.37 509.624L554.518 508.825Z" fill="black"></path><path d="M566.317 499.085C568.188 496.185 569.794 493.153 571.119 490.018C572.184 487.537 573.091 485.003 573.836 482.429C574.423 480.573 574.787 478.665 574.922 476.738C574.957 476.148 574.892 475.556 574.729 474.983C574.653 474.734 574.531 474.498 574.367 474.285C574.186 474.052 573.932 473.872 573.638 473.767C573.474 473.704 573.297 473.668 573.118 473.663C572.668 473.67 572.231 473.796 571.862 474.026C571.106 474.509 570.444 475.102 569.905 475.78C567.882 478.138 565.461 482.304 563.315 487.264C561.964 490.318 560.885 493.464 560.089 496.673L561.767 496.988C562.54 493.872 563.582 490.816 564.885 487.848C566.233 484.637 567.889 481.539 569.835 478.588C570.453 477.634 571.172 476.736 571.984 475.907C572.214 475.673 572.477 475.466 572.766 475.291C572.844 475.246 572.927 475.207 573.013 475.176L573.064 475.177L573.067 475.056L573.03 475.176L573.081 475.177L573.084 475.056L572.997 475.152L573.05 475.033L572.964 475.129C573.055 475.25 573.112 475.389 573.131 475.534C573.216 475.917 573.252 476.307 573.237 476.696C573.126 478.507 572.798 480.302 572.261 482.049C571.517 484.569 570.611 487.047 569.548 489.471C568.253 492.525 566.689 495.479 564.87 498.307L566.317 499.1L566.317 499.085Z" fill="black"></path><path d="M328.659 145.997H327.698C327.369 145.997 327.103 146.263 327.103 146.592C327.103 146.921 327.369 147.187 327.698 147.187H328.659C328.988 147.187 329.254 146.921 329.254 146.592C329.254 146.263 328.988 145.997 328.659 145.997ZM384.802 145.997H383.267C382.938 145.997 382.671 146.263 382.671 146.592C382.671 146.921 382.938 147.187 383.267 147.187H384.802C385.131 147.187 385.397 146.921 385.397 146.592C385.397 146.263 385.131 145.997 384.802 145.997ZM377.828 137.656C377.679 137.949 377.795 138.308 378.088 138.457C378.381 138.606 378.74 138.489 378.888 138.197L382.537 131.036C383.473 129.199 382.74 126.942 380.903 126.007L366.795 118.818C366.447 118.641 366.084 118.523 365.718 118.462C366.172 117.614 366.303 116.594 366 115.604L361.373 100.461C360.77 98.4886 358.675 97.3731 356.704 97.9771L341.561 102.604C339.589 103.206 338.475 105.301 339.078 107.274L340.27 111.177C340.366 111.491 340.7 111.67 341.013 111.572C341.328 111.476 341.505 111.144 341.409 110.829L340.216 106.926C339.805 105.581 340.565 104.153 341.908 103.742L357.052 99.1152C358.4 98.7042 359.824 99.4646 360.235 100.809L364.862 115.952C365.152 116.901 364.85 117.884 364.18 118.529C363.643 118.666 363.136 118.918 362.704 119.277L348.026 123.762C346.68 124.173 345.254 123.412 344.843 122.068L342.515 114.45C342.418 114.136 342.083 113.957 341.772 114.055C341.457 114.151 341.28 114.483 341.377 114.798L343.705 122.416C343.877 122.981 344.177 123.47 344.556 123.873H335.785C333.723 123.873 332.045 125.551 332.045 127.613V143.448C332.045 144.433 332.431 145.328 333.056 145.997H331.145C330.816 145.997 330.55 146.263 330.55 146.592C330.55 146.921 330.816 147.187 331.145 147.187C346.094 147.187 366.097 147.187 380.929 147.187C381.258 147.187 381.524 146.921 381.524 146.592C381.524 146.263 381.258 145.997 380.929 145.997H374.731C374.969 145.742 375.186 145.464 375.349 145.144L377.373 141.172C377.522 140.879 377.406 140.52 377.113 140.371C376.819 140.222 376.46 140.338 376.313 140.631L374.289 144.604C373.651 145.855 372.118 146.36 370.859 145.718L356.751 138.53C355.499 137.892 354.999 136.354 355.637 135.102L362.825 120.993C362.956 120.737 363.131 120.521 363.327 120.331L363.517 120.273C363.973 120.134 364.381 119.912 364.734 119.633C365.238 119.559 365.767 119.631 366.254 119.878L380.362 127.067C381.614 127.705 382.114 129.243 381.477 130.495L377.828 137.656ZM335.785 145.997C334.379 145.997 333.236 144.853 333.236 143.448V127.613C333.236 126.208 334.379 125.064 335.785 125.064H351.619C353.024 125.064 354.168 126.208 354.168 127.613V143.448C354.168 144.853 353.024 145.997 351.619 145.997H335.785ZM356.21 139.59L368.784 145.997H354.347C354.972 145.328 355.358 144.433 355.358 143.448V138.99C355.608 139.223 355.891 139.428 356.21 139.59ZM355.358 133.026V127.613C355.358 125.584 353.733 123.931 351.717 123.878L361.55 120.874L355.358 133.026Z" fill="black"></path><path d="M350.977 107.39L353.498 115.532L354.716 115.154L351.832 105.838L350.757 106.171L349.058 107.89L349.599 108.775L350.948 107.4L350.977 107.39Z" fill="black"></path><path d="M342.25 139.119L343.104 138.331C345.355 136.162 346.784 134.568 346.784 132.597C346.784 131.069 345.815 129.491 343.515 129.491C342.282 129.491 341.231 129.951 340.491 130.576L340.952 131.594C341.445 131.184 342.25 130.691 343.219 130.691C344.813 130.691 345.339 131.693 345.339 132.778C345.322 134.388 344.089 135.768 341.362 138.364L340.229 139.465V140.352H347.047V139.153H342.25V139.119ZM372.075 130.888C372.534 129.807 372.182 128.43 370.43 127.685C369.473 127.278 368.424 127.237 367.814 127.381L367.756 128.391C368.255 128.28 369.073 128.255 369.785 128.557C370.893 129.029 371.077 129.85 370.775 130.562C370.327 131.615 369.027 131.596 368.151 131.224L367.48 130.939L367.097 131.842L367.767 132.127C368.93 132.621 369.826 133.632 369.31 134.883C369.01 135.627 368.112 136.409 366.566 135.753C365.731 135.398 365.083 134.718 364.834 134.354L364.11 135.145C364.426 135.618 365.168 136.305 366.167 136.73C368.302 137.637 369.94 136.862 370.544 135.439C371.073 134.194 370.532 132.995 369.531 132.311L369.542 132.283C370.805 132.352 371.685 131.804 372.075 130.888Z" fill="black"></path></svg>