<svg xmlns="http://www.w3.org/2000/svg" width="301" height="300" viewBox="0 0 301 300" fill="none"><rect width="300" height="300" fill="white"></rect><path d="M187.55 126.333C186.694 125.478 187.764 125.478 188.62 125.05C192.043 123.766 212.455 117.304 230.257 112.597C248.058 107.89 273.605 102.498 277.499 101.856C278.997 101.428 279.639 101.856 280.494 103.14C281.35 104.638 283.49 109.816 284.132 113.881C284.988 119.016 284.132 124.408 283.704 125.692C283.276 126.761 281.778 126.761 278.355 127.831C276.215 128.473 267.4 130.613 263.763 131.682C259.698 132.966 248.529 136.176 244.421 137.459C239.5 139.171 232.824 141.311 232.824 141.311L197.606 141.952C197.606 141.952 197.178 139.599 196.751 139.385C196.537 139.171 195.895 138.101 195.681 137.673C195.467 137.459 195.039 136.176 195.039 136.176C195.039 136.176 194.825 134.892 194.611 134.678C194.397 134.464 193.541 132.752 193.327 132.538C193.113 132.324 192.257 131.468 192.043 131.041C191.829 130.613 191.615 130.185 190.974 129.757C190.546 129.329 189.904 128.473 189.476 128.259C188.834 127.831 188.406 127.189 187.55 126.333Z" fill="#ED1C24"></path><path d="M95.0341 189.452C96.9597 188.382 101.282 186.028 101.924 185.6C102.779 185.172 103.207 185.172 103.207 185.386C103.207 186.456 103.207 188.382 104.491 188.81C104.919 189.024 105.775 188.382 105.989 188.81C106.417 189.452 106.417 189.452 106.631 189.666C106.845 189.88 107.487 189.666 107.487 189.88C107.914 190.094 107.487 190.521 107.701 190.735C108.128 191.163 108.556 190.521 108.984 190.521C109.626 190.735 109.626 191.163 109.626 191.591C109.412 192.233 109.84 192.875 110.91 191.805C111.552 191.377 111.552 191.591 111.98 191.377C112.194 191.163 112.836 191.163 113.05 191.377C113.263 191.591 113.691 192.019 113.905 192.019C114.333 192.233 114.761 192.019 115.189 192.233C115.617 192.447 115.617 193.089 116.045 193.089C116.473 193.089 116.687 192.447 117.115 192.661C117.757 193.303 116.473 194.373 117.329 194.587C117.757 194.801 117.971 194.373 118.399 194.373C118.826 194.373 119.04 193.945 119.254 193.945C119.468 193.945 119.896 194.373 120.11 194.159C120.538 193.945 120.752 193.945 120.966 193.731C121.394 193.517 121.822 193.517 122.036 193.303C122.25 193.089 122.036 192.447 123.106 192.447C123.961 192.661 122.892 193.517 123.32 193.731C123.534 193.945 124.389 193.731 124.603 193.731C125.031 193.517 125.673 192.875 125.673 192.447C125.887 192.019 126.743 190.308 126.957 189.666C127.171 189.238 128.027 187.312 128.455 186.67C128.883 186.028 130.594 183.461 130.594 183.033C130.808 182.605 131.45 181.963 131.45 181.749C131.664 181.535 131.878 180.465 132.306 179.61C132.734 178.754 133.804 177.042 134.018 176.828C134.018 176.614 135.087 174.474 135.301 173.833C135.515 173.191 136.799 171.693 137.013 171.051C137.227 170.409 138.083 168.912 138.083 168.912L138.939 167.628C138.939 167.628 139.153 166.986 139.581 166.344C140.008 165.488 141.078 163.99 141.292 163.349C141.506 162.707 142.576 161.637 142.576 161.637L143.218 160.139L143.646 159.069C143.646 159.069 144.074 157.786 144.288 157.358C144.502 156.93 145.144 156.074 145.357 155.646C145.571 155.218 146.213 153.079 146.427 152.437C146.641 151.795 148.353 149.013 148.353 148.585L150.279 144.734C150.493 144.092 150.493 143.45 150.706 143.022C150.92 142.594 151.562 141.739 151.562 141.525C151.562 141.311 152.632 138.743 152.846 138.315C153.06 137.887 153.06 137.245 153.488 137.245C153.916 137.245 154.13 137.673 154.558 138.101C154.772 138.529 155.414 138.529 155.842 138.743C156.269 139.171 157.339 140.455 157.553 140.669C157.553 140.883 158.195 140.883 158.409 141.097C158.623 141.311 158.623 141.739 158.837 141.953C159.051 141.953 160.121 142.808 160.335 143.022C160.549 143.236 160.763 143.878 160.977 144.092C161.191 144.306 162.474 144.948 162.688 145.376C162.902 145.59 164.614 147.73 164.828 148.157C165.042 148.585 165.256 149.227 165.256 149.441C165.47 149.655 166.112 150.083 166.112 150.297C166.112 150.511 166.112 151.581 166.326 151.795C166.539 152.009 167.181 152.437 167.395 152.651C167.395 152.865 167.823 153.934 168.037 154.148L168.679 154.79C168.893 155.004 168.893 156.074 169.107 156.288C169.321 156.502 169.749 157.358 169.963 157.786C170.177 158.214 170.605 158.855 170.819 159.069C170.819 159.283 171.033 160.353 171.033 160.781C171.247 161.209 171.675 161.851 171.675 162.065C171.675 162.279 171.888 162.921 171.888 162.921L172.316 163.99C172.316 163.99 172.744 165.06 172.744 165.274C172.744 165.702 172.744 166.13 172.958 166.344C172.958 166.558 173.386 167.2 173.386 167.414C173.386 167.628 174.028 168.912 174.028 168.912C174.028 168.912 173.814 169.981 174.028 170.195C174.028 170.409 174.67 171.265 174.67 171.479C174.67 171.693 174.456 172.335 174.456 172.335L174.67 172.763C174.67 172.763 174.456 173.405 174.67 173.619V174.474C174.884 174.688 175.312 175.758 175.312 175.758C175.098 176.186 153.188 186.285 143.945 190.564C130.423 196.812 102.523 210.976 99.4844 212.688C96.489 214.399 94.5634 215.469 93.9215 215.041C92.2098 214.185 89.6423 211.832 87.6739 206.654C86.1761 202.375 86.1761 198.695 86.1761 196.983C86.1761 195.699 86.1761 194.63 88.3157 193.346C89.2144 192.918 93.1084 190.735 95.0341 189.452ZM56.3929 112.383C56.3929 112.597 57.0348 112.597 57.2488 112.597C57.4627 112.597 57.6767 113.025 57.8906 113.025H58.5325C58.9604 113.239 58.7465 113.667 58.9604 113.881C59.1744 114.095 59.1744 114.737 59.6023 114.737C60.0302 114.737 60.2442 114.737 60.4582 115.165C60.4582 115.379 60.2442 116.021 60.4582 116.449C61.1 117.518 60.4582 120.3 61.1 120.514C61.528 120.728 63.2396 120.3 63.6676 119.658C64.3094 119.23 64.9513 118.374 65.3792 118.16C66.2351 117.732 67.7328 116.876 68.5886 116.876C69.4445 116.663 69.6584 115.593 70.5143 115.379C71.1562 115.379 70.9422 114.737 71.5841 114.523C72.012 114.309 73.0818 113.881 73.2958 114.095C73.5097 114.309 73.7237 114.737 74.1516 114.737C74.7935 114.951 75.4354 114.737 75.4354 115.379C75.6493 116.235 76.9331 115.379 76.9331 115.379C76.9331 115.379 78.6448 114.309 79.2866 113.881C79.9285 113.667 81.8542 112.597 81.8542 112.597C81.8542 112.597 83.3519 111.741 83.9938 111.527C107.615 100.145 126.058 93.94 143.047 87.4784C170.091 77.1655 216.05 65.3549 224.865 63.2153C225.721 63.0014 227.86 62.5735 228.074 62.5735C228.288 62.3595 228.716 62.3595 228.93 61.5037C229.144 60.6478 228.502 59.578 228.502 59.1501C228.502 58.7222 229.358 57.0105 229.572 56.3686C229.572 55.7267 228.93 55.5128 228.93 55.5128V54.0151C228.716 53.3732 227.646 52.7313 227.432 52.3034C227.219 51.8755 227.432 50.1638 227.219 49.7359C227.005 49.3079 226.363 48.88 226.363 48.88C226.363 48.88 226.577 48.6661 226.363 48.2381C226.149 47.8102 225.721 47.8102 225.721 47.8102C225.721 47.8102 225.935 46.7404 225.721 46.5265C225.721 46.0985 225.079 45.8846 225.079 45.8846C225.079 45.8846 224.437 45.4567 224.437 45.0287C224.437 44.6008 224.437 44.3869 224.009 44.1729C223.795 43.9589 222.725 43.9589 222.511 43.9589C222.297 43.9589 221.442 43.745 221.014 43.745C220.586 43.745 220.372 44.1729 218.874 44.6008C217.376 44.8148 216.734 44.6008 216.093 44.6008C215.451 44.6008 214.809 45.0287 213.953 45.2427C206.85 47.1683 174.242 56.6254 150.193 65.6545C127.856 73.6138 101.239 85.8523 84.9352 94.1967C72.6967 100.658 66.0211 104.296 63.4536 106.007C61.9559 106.863 60.4582 107.933 60.2442 108.361C59.8163 109.003 59.3884 109.859 58.7465 110.073C57.6767 110.287 57.8906 110.714 57.6767 110.928C57.2488 110.928 56.8208 111.356 56.6069 111.784C56.179 111.741 56.179 112.169 56.3929 112.383ZM157.724 97.7913C156.655 97.1494 157.082 96.5075 158.366 96.0796C166.112 92.8702 185.839 85.7667 197.007 82.1294C206.678 79.134 233.081 70.5328 240.612 68.3932C242.324 67.9653 243.18 67.9653 243.822 68.8211C245.747 70.9607 247.673 73.7422 249.599 77.4223C251.31 80.6317 252.808 85.3816 253.236 88.377C253.664 90.5166 252.594 90.9445 251.524 91.3725C243.351 95.0098 222.982 103.825 214.595 107.89C206.422 111.741 191.402 119.059 186.267 121.626C184.127 122.696 184.555 123.124 183.057 121.412C182.629 120.985 181.987 119.701 181.773 119.487C181.559 119.273 178.778 116.705 178.35 116.277C178.136 116.063 176.424 114.138 175.997 113.71C175.569 113.496 174.285 111.57 173.857 111.356C173.429 111.142 172.787 110.714 172.359 110.5C172.145 110.287 171.503 109.431 171.289 109.431C171.075 109.217 170.22 108.575 170.22 108.575L169.15 107.505L168.294 106.649C168.294 106.649 167.652 105.793 167.01 105.579C166.582 105.365 165.726 104.51 165.512 104.296C165.299 104.082 163.587 101.942 162.731 101.3C161.875 100.872 159.95 99.3746 159.522 99.1606C159.222 98.6471 158.58 98.2192 157.724 97.7913ZM145.058 58.5082C143.988 58.5082 143.132 58.5082 142.918 58.2943C142.704 58.0803 142.918 57.8663 142.704 57.6524C142.49 57.4384 142.062 57.4384 141.849 57.6524C141.635 57.8663 141.635 57.8663 141.421 57.8663C140.993 58.0803 139.709 57.4384 139.281 57.6524C138.853 57.8663 137.783 57.8663 137.569 57.6524C137.141 57.4384 137.141 56.5826 136.5 56.3686C136.286 56.1547 135.216 55.7267 135.002 55.0849C134.788 54.443 133.932 53.8011 133.718 53.3732C133.504 52.9453 133.29 52.3034 133.076 52.0894C132.862 51.8755 132.648 51.0196 132.434 50.8057L131.792 50.1638C131.578 49.9498 131.364 49.094 131.151 48.88C131.151 48.6661 130.723 48.4521 130.723 48.2381C130.509 48.0242 130.509 47.8102 130.509 47.3823C130.295 47.1683 130.081 46.7404 129.867 46.3125C129.867 46.0985 129.653 44.1729 129.653 42.8892C129.653 41.3914 129.653 40.3216 129.867 39.6798C130.081 39.0379 130.295 38.61 130.509 37.9681C130.723 37.3262 131.364 35.4006 131.578 34.5447C131.792 33.6889 132.22 31.9772 132.434 31.3353C132.648 30.6934 133.29 29.1957 133.504 28.7678C133.718 28.3399 135.002 26.4142 135.43 25.9863C135.858 25.3444 137.997 23.2048 138.639 22.7769C139.067 22.349 140.351 21.4932 140.779 21.2792C140.993 21.0652 142.49 19.9954 142.918 19.7815C143.346 19.5675 143.774 19.5675 143.774 19.5675L144.202 19.1396C144.202 19.1396 144.416 18.9256 144.844 18.7117C145.058 18.4977 145.7 18.4977 145.7 18.4977C145.7 18.4977 146.556 17.8558 147.198 18.0698C147.625 18.0698 147.839 17.4279 148.053 17.4279C148.481 17 149.765 17 149.765 17C149.979 17.214 150.193 17.4279 150.835 17.4279C151.477 17.6419 151.905 17.4279 152.333 17.4279C152.76 17.4279 152.974 17.8558 153.188 18.0698C153.402 18.0698 156.184 20.8513 156.612 21.4932C156.826 21.7071 156.826 22.135 156.826 22.349C157.04 22.563 157.468 22.7769 157.682 23.6328C157.682 24.0607 158.323 24.2746 158.323 25.1305C158.323 25.5584 159.179 25.9863 159.607 27.0561C159.607 27.2701 159.821 28.3399 159.821 28.3399C159.821 28.5538 160.035 28.5538 160.249 28.9818C160.463 29.4097 160.463 29.8376 160.463 30.2655C160.463 30.6934 161.105 32.1912 161.105 33.261C161.105 34.3308 160.891 35.1866 160.677 36.0424C160.463 36.6843 160.677 38.182 160.463 38.8239C160.249 39.4658 159.821 40.7496 159.821 41.1775C159.821 41.6054 158.537 44.6008 158.323 44.8148C158.109 45.0287 157.468 46.5265 157.04 46.9544C156.826 47.3823 154.258 50.5917 153.83 51.2336C153.402 51.6615 152.333 52.5173 152.119 52.7313C151.905 53.1592 151.691 53.5871 151.263 54.229C150.835 55.0849 150.193 54.443 149.765 54.8709C149.337 55.5128 148.481 55.7267 148.267 56.1547C148.053 56.7965 147.411 57.4384 147.198 57.6524C146.984 58.0803 145.7 58.5082 145.058 58.5082ZM74.6223 161.765C74.6223 161.765 64.3094 165.189 60.2442 166.686C56.3929 167.97 52.0709 169.468 49.2895 170.752C45.8661 172.249 39.6185 174.603 38.1207 175.245C35.7672 176.101 34.9113 175.673 34.2695 174.175C33.6276 172.891 32.1299 169.896 31.274 166.644C30.4182 163.22 30.2042 160.653 30.2042 159.54C30.2042 158.428 31.0601 156.759 32.3438 155.903C33.6276 155.261 36.623 153.335 39.0194 152.052C43.5125 149.484 59.4312 140.883 68.8454 136.176C78.7303 131.041 94.6062 123.295 102.993 119.23C111.381 115.165 125.331 108.489 127.042 107.633C128.754 106.992 130.466 106.136 131.322 106.136C132.178 106.136 131.75 106.564 131.75 106.778C131.75 106.992 131.536 107.206 131.322 107.847C131.322 108.489 131.322 109.131 131.108 109.773C130.894 110.415 130.252 111.057 130.252 111.485C130.252 111.913 130.038 113.41 129.61 113.838C129.182 114.266 127.684 117.262 127.47 118.545C127.256 119.829 126.401 122.183 126.187 122.611L124.689 125.606C124.689 126.248 123.833 127.746 123.619 128.388C123.405 129.029 122.121 131.383 121.907 131.811C121.693 132.239 120.838 135.02 120.624 135.448C120.41 135.876 119.554 137.16 119.554 137.16L119.126 138.872C119.126 138.872 118.056 140.583 118.056 140.797C118.056 141.011 117.2 144.007 116.772 144.648C116.344 145.29 114.419 149.784 113.991 151.324C113.563 152.822 112.921 155.175 112.707 155.603C112.493 156.031 111.423 157.957 111.209 158.599C110.995 159.241 110.14 162.45 109.712 162.878C109.498 163.52 108.642 165.231 108.642 165.873C108.642 166.515 108 167.799 107.572 169.083C107.144 170.153 106.502 172.292 106.074 172.934C105.86 173.576 105.433 174.218 105.219 174.646C105.219 175.074 105.005 176.143 105.005 176.571C105.005 176.785 104.791 177.427 104.791 177.427C104.363 177.641 76.2484 189.666 72.1404 191.591C68.0751 193.517 39.704 207.039 37.7784 207.895C36.0667 208.751 33.7132 210.463 32.0015 209.393C29.6479 207.895 27.5083 204.686 26.0106 201.647C24.7269 199.294 23.4431 195.186 23.2291 192.404C23.0152 188.767 24.5129 188.125 29.6907 185.087C32.2582 183.589 52.884 172.848 59.3028 169.425C61.314 168.869 74.6223 161.765 74.6223 161.765Z" fill="#ED1C24"></path><path d="M156.132 227.705L153.682 237.65H153.56L151.233 227.705H146.432L142.61 243.063H146.04L148.612 233.241L151.061 243.063H155.74L159.684 227.705M134.625 235.445L137.319 231.012L137.564 235.445H134.625ZM135.727 227.705C132.42 232.873 129.089 238.017 125.659 242.941H130.093L132.787 238.63H137.466L137.711 243.063H142.022C141.532 238.017 140.92 232.751 140.553 227.827H135.751L135.727 227.705ZM164.73 231.893C164.975 231.036 166.077 230.791 166.69 230.791C167.914 230.791 168.527 231.036 169.384 231.526C169.384 231.526 170.119 228.464 170.119 228.341C168.894 227.607 167.547 227.484 166.42 227.484C162.868 227.484 161.007 229.566 160.639 231.428C159.904 234.98 164.191 236.964 163.701 238.556C163.334 239.781 162.231 239.781 161.496 239.781C160.394 239.781 159.292 239.414 158.312 238.924L157.455 242.5C158.557 242.867 160.272 243.235 161.521 243.235C165.71 243.235 167.057 241.398 167.424 239.291C168.404 235.813 164.24 233.853 164.73 231.893ZM123.92 231.893C124.165 231.036 125.267 230.791 125.88 230.791C127.104 230.791 127.717 231.036 128.574 231.526C128.574 231.526 129.554 228.586 129.554 228.464C128.207 227.607 126.737 227.484 125.733 227.484C122.181 227.484 120.319 229.566 119.952 231.428C119.217 234.98 123.503 236.964 123.014 238.556C122.646 239.781 121.544 239.781 120.809 239.781C119.707 239.781 118.604 239.414 117.624 238.924L116.767 242.5C117.869 242.867 119.584 243.235 120.833 243.235C125.022 243.235 126.369 241.398 126.737 239.291C127.619 235.813 123.308 233.853 123.92 231.893ZM228.027 237.65L225.7 227.705H220.899L216.955 242.941H220.507L222.956 233.241H223.079L225.528 242.941H230.207L234.151 227.705H230.575M183.151 231.012H189.054L189.789 227.705H179.966L176.145 242.941H180.089L181.681 236.915H186.605L187.34 233.731H182.538M246.938 227.705H235.498L234.641 231.012H238.34L235.278 242.941H239.344L242.406 231.012H246.105M248.31 227.705L244.366 242.941H248.432L252.376 227.705M261.439 236.915L262.297 233.731H257.25L257.863 231.036H264.256L265.114 227.729H254.678L250.857 242.965H261.17L262.027 239.781H255.634L256.369 236.964M287.258 236.915L287.993 233.731H282.824L283.559 231.036H289.952L290.81 227.729H280.374L276.431 242.965H286.866L287.723 239.781H281.33L282.065 236.964M213.403 235.323C212.791 237.772 210.953 239.879 208.602 239.879C206.152 239.879 205.54 237.674 206.152 235.323C206.765 232.971 208.479 230.767 210.953 230.767C213.281 230.767 214.015 232.873 213.403 235.323ZM211.786 227.46C207.23 227.46 203.433 230.277 202.086 235.323C200.739 240.369 203.188 243.186 207.744 243.186C212.056 243.186 215.853 240.736 217.322 235.69C218.792 230.399 216.342 227.46 211.786 227.46ZM295.611 231.893C295.856 231.159 296.958 230.791 297.571 230.791C298.795 230.791 299.408 231.036 300.265 231.526C300.265 231.526 301 228.464 301 228.341C299.775 227.607 298.428 227.484 297.301 227.484C293.749 227.484 291.887 229.566 291.52 231.428C290.908 234.98 295.096 236.964 294.582 238.556C294.215 239.781 293.112 239.781 292.377 239.781C291.275 239.781 290.173 239.414 289.193 238.924L288.336 242.5C289.438 242.867 291.153 243.235 292.402 243.235C296.591 243.235 297.938 241.398 298.305 239.291C299.31 235.69 294.999 233.731 295.611 231.893ZM197.799 236.303C199.881 235.935 201.351 234.098 201.865 232.359C202.6 229.297 201.743 227.68 198.436 227.68H191.528L187.584 242.916H191.406L194.468 230.865H196.427C197.04 230.865 198.265 230.865 197.775 232.457C197.53 233.682 196.55 234.416 194.835 234.416H193.365L194.713 242.892H199.024C199.269 242.941 197.922 236.548 197.799 236.303ZM273.369 236.303C275.451 235.935 276.921 234.098 277.435 232.359C278.17 229.297 277.313 227.68 274.006 227.68H267.122L263.178 242.916H267L270.062 230.865H272.021C272.634 230.865 273.859 230.865 273.369 232.457C273.001 233.682 272.144 234.416 270.429 234.416H269.082L270.429 242.892H274.74C274.838 242.941 273.491 236.548 273.369 236.303ZM62.362 242.941L63.0969 239.757H56.8259L57.4383 236.94H62.7294L63.4643 233.755H58.2957L59.0306 231.061H65.424L66.1588 227.754H55.8461L51.9023 242.941M35.4411 242.941L36.176 239.757H29.9051L30.5175 236.94H35.6861L36.5434 233.755H31.3748L32.1097 231.061H38.3806L39.238 227.754H28.9252L24.9814 242.99M70.96 243.186C71.6949 243.186 73.6546 242.941 74.9038 242.696L75.8837 239.144C74.6589 239.512 73.4341 239.757 71.8174 239.757C69.3678 239.757 68.7554 237.552 69.3678 235.2C69.8577 233.118 71.6949 230.644 74.9038 230.644C75.8837 230.644 76.8635 230.889 77.8433 231.256L78.7007 227.827C77.7209 227.46 76.2511 227.337 75.1488 227.337C70.5926 227.337 66.6732 230.154 65.4485 235.2C64.0767 240.369 66.4038 243.186 70.96 243.186ZM80.9053 242.941L84.8491 227.705H80.7828L76.839 242.941M13.1989 232.138H13.3214L13.0765 242.965H16.5059L21.9194 232.016L19.2249 242.965H22.5318L26.4757 227.729H21.0621L16.3834 237.282L16.6284 227.705H10.9698L7.026 242.941H10.4554M86.8088 242.941L89.3808 233.241L91.8304 242.941H96.5091L100.453 227.705H96.9011L94.4515 237.65H94.329L92.0019 227.705H87.1762L83.3549 242.941M48.3504 235.323C47.738 237.527 46.1458 239.757 43.9167 239.757H42.202L44.4066 231.036H46.3662C48.5954 231.012 49.0853 232.506 48.3504 235.323ZM52.3922 235.323C53.9844 228.929 50.555 227.705 48.6933 227.705H41.4426L37.4988 242.941H43.8922C48.3504 242.941 51.1674 239.757 52.3922 235.323ZM105.499 231.893C105.744 231.036 106.846 230.791 107.459 230.791C108.684 230.791 109.296 231.036 110.153 231.526C110.153 231.526 110.888 228.464 110.888 228.341C109.663 227.607 108.316 227.484 107.336 227.484C103.784 227.484 101.923 229.566 101.555 231.428C100.943 234.98 105.107 236.964 104.617 238.556C104.25 239.781 103.147 239.781 102.413 239.781C101.31 239.781 100.208 239.414 99.2282 238.924L98.3708 242.5C99.4731 242.867 101.188 243.235 102.437 243.235C106.626 243.235 107.973 241.398 108.341 239.291C109.173 235.813 104.862 233.853 105.499 231.893Z" fill="black"></path><path d="M5.18884 247.252H299.163" stroke="#ED1C24" stroke-width="2"></path><path d="M92.5897 255.36C92.8347 254.503 93.937 254.258 94.5494 254.258C95.7742 254.258 96.3866 254.503 97.2439 254.993C97.2439 254.993 97.9788 251.931 97.9788 251.808C96.754 251.074 95.4068 250.951 94.4269 250.951C90.875 250.951 89.0134 253.033 88.6459 254.895C87.9111 258.447 92.1978 260.431 91.7079 262.023C91.3405 263.248 90.2382 263.248 89.5033 263.248C88.401 263.248 87.2987 262.881 86.3188 262.391L85.4615 265.967C86.5638 266.334 88.2785 266.702 89.5278 266.702C93.7165 266.702 95.0638 264.865 95.4313 262.758C96.2641 259.28 92.0998 257.32 92.5897 255.36ZM59.0305 251.294H47.7135L46.8561 254.479H50.555L47.493 266.53H51.5593L54.6213 254.479H58.3201M82.375 259.794C84.4572 259.427 85.9269 257.589 86.4413 255.85C87.1762 252.788 86.3188 251.172 83.0119 251.172H76.2511L72.3072 266.408H76.1286L79.1906 254.356H81.1502C81.7626 254.356 82.9874 254.356 82.4975 255.948C82.1301 257.173 81.2727 257.908 79.558 257.908H78.0882L79.4355 266.383H83.7468C83.7468 266.53 82.375 260.162 82.375 259.794ZM38.6255 266.8C39.3604 266.8 41.3201 266.677 42.4469 266.432L43.4267 262.856C42.2019 263.224 41.0996 263.346 39.4829 263.346C37.0333 263.346 36.4209 261.141 37.0333 258.79C37.5232 256.708 39.3604 254.234 42.5694 254.234C43.5492 254.234 44.529 254.479 45.5088 254.846L46.3662 251.417C45.3864 251.049 43.9166 250.927 42.8143 250.927C38.2581 250.927 34.3388 253.744 33.114 258.79C31.6197 263.958 34.0938 266.8 38.6255 266.8ZM11.5822 258.912C10.9698 261.117 9.37755 263.346 7.14844 263.346H5.67869L7.88331 254.626H9.59802C11.8271 254.503 12.317 256.095 11.5822 258.912ZM15.526 258.912C17.1182 252.519 13.6888 251.294 11.8271 251.294H4.94382L1 266.53H7.02596C11.4597 266.53 14.4237 263.346 15.526 258.912ZM26.2062 250.927C21.7724 250.927 17.9756 253.744 16.7508 258.79C15.526 263.836 17.8531 266.653 22.2868 266.653C26.4756 266.653 30.2725 264.203 31.6197 259.157C33.0895 254.013 30.6399 250.927 26.2062 250.927ZM27.9454 259.035C27.2105 261.484 25.2508 263.468 22.8992 263.346C20.4497 263.224 19.9597 261.019 20.6946 258.667C21.4295 256.316 23.2667 254.234 25.7407 254.356C28.0678 254.503 28.6802 256.585 27.9454 259.035ZM67.1386 250.927C62.7049 250.927 58.908 253.744 57.6832 258.79C56.4585 263.836 58.7856 266.653 63.2193 266.653C67.4081 266.653 71.2049 264.203 72.5522 259.157C74.0219 254.013 71.5724 250.927 67.1386 250.927ZM68.9758 259.035C68.2409 261.484 66.2813 263.468 63.9297 263.346C61.4801 263.224 60.9902 261.019 61.725 258.667C62.4599 256.34 64.2971 254.234 66.7712 254.356C68.9758 254.503 69.6127 256.585 68.9758 259.035ZM126.002 251.294L122.058 266.53H126.124L129.946 251.294M200.494 251.294H189.177L188.319 254.479H192.018L188.956 266.53H193.022L195.962 254.479H199.661M142.733 251.294H131.416L130.558 254.479H134.257L131.195 266.53H135.261L138.323 254.479H141.875M178.864 251.294L176.659 260.015C176.047 262.219 176.292 263.591 178.129 263.591C179.966 263.591 180.824 262.244 181.436 260.015L183.641 251.294H187.829L185.135 261.607C184.155 265.306 181.069 266.775 177.272 266.775C173.475 266.775 171.123 265.306 172.103 261.607L174.798 251.294H178.864ZM124.532 251.294L117.894 266.53H113.46L114.195 257.075H114.073L110.521 266.53H106.332L106.699 251.294H110.129L109.639 261.999L113.583 251.294H117.526L116.669 261.999H116.792L121.225 251.294M144.202 251.294H148.024L146.554 256.953H151.478L152.947 251.294H156.769L152.825 266.53H149.004L150.596 260.137H145.672L144.08 266.53H140.259M165.71 250.927C161.276 250.927 157.479 253.744 156.254 258.79C155.03 263.836 157.357 266.653 161.79 266.653C165.979 266.653 169.776 264.203 171.123 259.157C172.593 254.013 170.143 250.927 165.71 250.927ZM167.424 259.035C166.69 261.484 164.73 263.468 162.378 263.346C159.929 263.224 159.439 261.019 160.174 258.667C160.909 256.34 162.746 254.234 165.22 254.356C167.547 254.503 168.159 256.585 167.424 259.035ZM258.255 258.912C257.642 261.117 256.05 263.346 253.821 263.346H252.351L254.556 254.626H256.271C258.5 254.503 258.99 256.095 258.255 258.912ZM262.321 258.912C263.913 252.519 260.484 251.294 258.622 251.294H251.739L247.795 266.53H253.821C258.255 266.53 261.072 263.346 262.321 258.912ZM293.406 255.36C293.651 254.503 294.753 254.258 295.366 254.258C296.591 254.258 297.203 254.503 298.06 254.993C298.06 254.993 298.795 251.931 298.795 251.808C297.57 251.074 296.223 250.951 295.243 250.951C291.667 250.951 289.83 253.033 289.462 254.895C288.728 258.447 293.014 260.431 292.524 262.023C292.157 263.248 291.055 263.248 290.32 263.248C289.217 263.248 288.115 262.881 287.135 262.391L286.278 265.967C287.38 266.334 289.095 266.702 290.344 266.702C294.533 266.702 295.88 264.865 296.248 262.758C297.203 259.28 292.916 257.32 293.406 255.36ZM284.196 259.794C286.278 259.427 287.748 257.589 288.262 255.85C288.997 252.788 288.14 251.172 284.833 251.172H278.072L274.128 266.408H277.949L281.011 254.356H282.971C283.583 254.356 284.808 254.356 284.318 255.948C283.951 257.173 283.094 257.908 281.379 257.908H279.909L281.256 266.383H285.568C285.666 266.53 284.196 260.162 284.196 259.794ZM244.611 259.794C246.693 259.427 248.163 257.589 248.677 255.85C249.412 252.788 248.554 251.172 245.248 251.172H238.487L234.543 266.408H238.364L241.426 254.356H243.386C243.998 254.356 245.223 254.356 244.733 255.948C244.366 257.173 243.508 257.908 241.794 257.908H240.324L241.671 266.383H245.982C246.08 266.53 244.733 260.162 244.611 259.794ZM272.021 266.53L272.756 263.224H266.485L267.098 260.529H272.389L273.124 257.222H267.955L268.69 254.528H275.083L275.818 251.343H265.506L261.562 266.579M212.178 257.32H212.913C214.015 257.32 215.363 257.443 215.853 255.483C216.22 254.258 214.995 254.258 214.015 254.258H212.913L212.178 257.32ZM210.561 263.468H211.909C213.134 263.468 214.236 263.468 214.603 261.754C214.971 260.162 213.868 260.162 212.889 260.162H211.419L210.561 263.468ZM209.949 251.294H217.69C218.792 251.294 220.384 252.274 219.649 254.993C219.159 256.83 218.18 258.177 216.342 258.692C217.935 258.937 218.67 260.284 218.18 262.391C217.322 265.698 215.24 266.457 212.399 266.457H206.005L209.949 251.294ZM229.374 250.927C224.94 250.927 221.144 253.744 219.919 258.79C218.694 263.836 221.021 266.653 225.455 266.653C229.644 266.653 233.441 264.203 234.788 259.157C236.258 254.013 233.93 250.927 229.374 250.927ZM231.211 259.035C230.477 261.484 228.517 263.468 226.165 263.346C223.716 263.224 223.226 261.019 223.961 258.667C224.696 256.316 226.533 254.234 229.007 254.356C231.334 254.503 231.824 256.585 231.211 259.035Z" fill="black"></path></svg>