<svg xmlns="http://www.w3.org/2000/svg" width="300" height="300" viewBox="0 0 300 300" fill="none"><rect width="300" height="300" fill="white"></rect><path d="M197.98 44H87.8787V164.522H197.98V44Z" fill="#FD5A00"></path><path d="M120.216 137.739L107.873 112.605L108.067 137.739H100V95.6521H108.067L120.41 120.787L120.216 95.6521H128.283V137.739H120.216Z" fill="white"></path><path d="M140.457 137.739H132.323V95.6521H145.299C155.564 95.6521 159.098 100.833 158.905 108.844C158.711 116.055 156.29 118.031 152.271 120.167L161.616 137.739H152.126L144.428 121.983H140.457V137.739ZM140.457 113.811H145.977C149.608 113.811 150.044 111.141 150.044 108.844C150.044 106.548 149.608 103.877 145.977 103.877H140.457V113.811Z" fill="white"></path><path d="M177.97 94.6956C182.347 94.6956 184.319 95.5912 185.858 96.2234V104.6C183.646 103.494 181.241 102.967 178.788 103.02C172.631 103.02 169.793 105.707 169.793 116.244C169.793 126.781 172.631 129.468 178.788 129.468C181.241 129.52 183.646 128.993 185.858 127.887V136.211C184.367 136.896 182.395 137.739 177.97 137.739C166.907 137.739 161.664 131.838 161.616 116.244C161.664 100.649 166.907 94.6956 177.97 94.6956Z" fill="white"></path><path d="M17.1717 177.913V201.826H14.5299L2.49504 182.397L2.73965 201.826H0V177.913H2.73965L14.6278 197.075L14.5299 177.913H17.1717Z" fill="black"></path><path d="M33.2596 202.783C26.5585 202.783 22.2224 197.724 22.2224 190.348C22.2224 181.601 27.8888 177.913 33.3582 177.913C39.5666 177.913 44.4446 182.392 44.4446 190.084C44.4446 197.25 40.6013 202.783 33.2596 202.783ZM33.3582 180.495C27.7903 180.495 25.4252 185.079 25.4252 190.4C25.4252 195.353 27.6917 200.306 33.4074 200.306C39.3695 200.306 41.3404 195.037 41.2912 190.19C41.2419 184.499 38.4333 180.547 33.3582 180.495Z" fill="black"></path><path d="M52.2087 191.684V201.826H49.4949V177.913H57.2619C60.1629 177.966 61.8941 177.966 63.5317 179.354C65.0757 180.689 65.7308 182.664 65.7308 184.852C65.7308 190.457 61.8005 191.204 60.7711 191.417L66.6666 201.773H63.3445L57.6362 191.631L52.2087 191.684ZM52.2087 189.015H57.7766C58.6188 189.069 59.5078 188.962 60.35 188.802C62.2684 188.268 62.9702 186.667 62.9702 184.959C63.017 183.678 62.5491 182.45 61.7069 181.596C60.584 180.528 59.2271 180.582 57.6362 180.582H52.2554L52.2087 189.015Z" fill="black"></path><path d="M95.984 177.913H98.99L92.3476 201.826H89.5355L83.8143 182.023L78.287 201.826H75.3779L68.687 177.913H71.7416L76.881 197.716L82.4082 177.913H85.2203L90.9416 197.716L95.984 177.913Z" fill="black"></path><path d="M105.802 190.937V199.05H118.182V201.826H103.03V177.913H117.799V180.742H105.802V188.108H116.222V190.937H105.802Z" fill="black"></path><path d="M142.376 189.689V202.202H139.912V198.876C138.076 201.779 134.935 202.783 131.987 202.783C125.319 202.783 121.212 197.661 121.212 190.639C121.212 184.62 124.546 177.915 132.422 177.915C135.176 177.862 137.882 178.918 139.96 180.924C140.975 182.033 141.844 183.3 142.424 184.726L139.429 185.571C139.139 184.515 138.607 183.564 137.931 182.772C137.061 181.769 135.37 180.449 132.519 180.449C126.431 180.449 124.401 185.94 124.401 190.217C124.401 194.652 126.527 199.931 132.422 199.931C135.08 199.931 140.057 198.506 139.96 192.223H132.374V189.583H142.376V189.689Z" fill="black"></path><path d="M151.515 177.913V201.826H148.485V177.913H151.515Z" fill="black"></path><path d="M169.368 194.513H161.08L158.657 201.826H155.555L163.843 177.913H166.848L174.747 201.826H171.694L169.368 194.513ZM168.544 191.844L165.394 181.863L162.05 191.844H168.544Z" fill="black"></path><path d="M194.949 177.913V201.826H192.463L181.136 182.397L181.366 201.826H178.788V177.913H181.366L192.555 197.075L192.463 177.913H194.949Z" fill="black"></path><path d="M2.87341 230.902V241.043H0V217.13H8.22393C11.2955 217.184 13.1286 217.184 14.8625 218.572C16.4974 219.906 17.191 221.881 17.191 224.123C17.191 229.727 13.0295 230.475 11.9396 230.688L18.1818 241.043H14.6644L8.62026 230.902H2.87341ZM2.87341 228.233H8.76889C9.66064 228.286 10.6019 228.179 11.4937 228.019C13.5249 227.486 14.268 225.884 14.268 224.176C14.3176 222.895 13.8221 221.667 12.9304 220.813C11.7414 219.746 10.3047 219.799 8.62026 219.799H2.92296L2.87341 228.233Z" fill="black"></path><path d="M24.9946 230.154V238.268H37.3739V241.043H22.2224V217.13H36.9915V219.959H24.9946V227.325H35.4143V230.154H24.9946Z" fill="black"></path><path d="M44.3604 229.806V241.043H41.4143V217.13H55.5557V219.953H44.3604V227.036H54.7701V229.806H44.3604Z" fill="black"></path><path d="M75.7573 217.182V232.05C75.7573 233.09 75.6625 234.077 75.4729 235.065C74.8568 237.872 72.4871 241.043 67.5107 241.043C65.9467 241.043 63.0083 240.783 60.9703 237.924C59.5485 235.949 59.5959 234.181 59.5959 231.582V217.13H62.4395V231.166C62.3921 233.298 62.3921 235.117 63.5296 236.625C64.8092 238.34 66.6576 238.444 67.5107 238.444C70.0226 238.444 71.9658 237.145 72.5819 234.597C72.8189 233.454 72.8663 232.31 72.8663 231.114V217.182H75.7573Z" fill="black"></path><path d="M101.972 227.95V240.463H99.5074V237.136C97.6713 240.04 94.5305 241.044 91.583 241.044C84.915 241.044 80.8079 235.922 80.8079 228.9C80.8079 222.881 84.1419 216.176 92.0179 216.176C94.7721 216.123 97.478 217.179 99.5557 219.185C100.57 220.294 101.44 221.561 102.02 222.987L99.0242 223.831C98.7343 222.776 98.2028 221.825 97.5263 221.033C96.6565 220.03 94.9654 218.71 92.1146 218.71C86.0263 218.71 83.9969 224.201 83.9969 228.478C83.9969 232.913 86.123 238.192 92.0179 238.192C94.6755 238.192 99.6523 236.767 99.5557 230.484H91.9696V227.844L101.972 227.95Z" fill="black"></path><path d="M110.853 230.154V238.268H123.232V241.043H108.081V217.13H122.85V219.959H110.853V227.325H121.273V230.154H110.853Z" fill="black"></path><path d="M131.055 230.154V238.268H143.434V241.043H128.283V217.13H143.052V219.959H131.055V227.325H141.475V230.154H131.055Z" fill="black"></path><path d="M177.778 232.479C176.862 237.13 173.391 242 167.123 242C159.988 242 156.565 235.927 156.565 229.087C156.565 222.138 160.085 216.174 167.509 216.174C174.933 216.174 176.813 222.029 177.344 223.67L174.451 224.381C174.21 223.396 173.776 222.466 173.149 221.646C171.751 219.785 169.678 218.746 167.509 218.8C165.195 218.746 163.025 219.895 161.579 221.864C160.181 223.834 159.747 226.351 159.747 228.868C159.747 234.942 162.495 239.21 167.461 239.21C170.691 239.21 173.969 237.13 174.644 231.987L177.778 232.479Z" fill="black"></path><path d="M191.845 241.044C185.144 241.044 180.808 235.985 180.808 228.609C180.808 219.862 186.475 216.174 191.944 216.174C198.152 216.174 203.03 220.653 203.03 228.345C203.03 235.511 199.138 241.044 191.845 241.044ZM191.944 218.808C186.376 218.808 184.011 223.392 184.011 228.714C184.011 233.667 186.277 238.62 191.993 238.62C197.955 238.62 199.926 233.351 199.877 228.503C199.778 222.76 197.019 218.808 191.944 218.808Z" fill="black"></path><path d="M224.242 217.182V232.05C224.242 233.09 224.148 234.077 223.958 235.065C223.342 237.872 220.972 241.043 215.996 241.043C214.432 241.043 211.493 240.783 209.455 237.924C208.034 235.949 208.081 234.181 208.081 231.582V217.13H210.925V231.166C210.877 233.298 210.877 235.117 212.015 236.625C213.294 238.34 215.143 238.444 215.996 238.444C218.508 238.444 220.451 237.145 221.067 234.597C221.304 233.454 221.351 232.31 221.351 231.114V217.182H224.242Z" fill="black"></path><path d="M247.475 217.13V241.043H244.825L232.756 221.614L233.001 241.043H230.303V217.13H233.05L244.973 236.293L244.874 217.13H247.475Z" fill="black"></path><path d="M273.737 232.479C272.821 237.13 269.35 242 263.083 242C255.948 242 252.525 235.927 252.525 229.087C252.525 222.138 256.044 216.174 263.469 216.174C270.893 216.174 272.773 222.029 273.303 223.67L270.411 224.381C270.17 223.396 269.736 222.412 269.109 221.646C267.711 219.785 265.638 218.746 263.469 218.8C261.155 218.746 258.985 219.895 257.539 221.864C256.141 223.834 255.707 226.351 255.707 228.868C255.707 234.942 258.455 239.21 263.42 239.21C266.651 239.21 269.929 237.13 270.555 231.987L273.737 232.479Z" fill="black"></path><path d="M280.808 217.13V241.043H277.778V217.13H280.808Z" fill="black"></path><path d="M289.713 238.221H300V241.043H286.869V217.13H289.713V238.221Z" fill="black"></path></svg>